<svg width="25" height="25" viewBox="0 0 25 25" fill="none" xmlns="http://www.w3.org/2000/svg">
<g id="check-circle-1">
<path id="Shape" d="M12.3825 0.448792C5.76765 0.448792 0.405273 5.81117 0.405273 12.426C0.405273 19.0408 5.76765 24.4032 12.3825 24.4032C18.9973 24.4032 24.3597 19.0408 24.3597 12.426C24.352 5.81436 18.9941 0.456492 12.3825 0.448792Z" fill="#5243C2" fill-opacity="0.15"/>
<path id="Path" d="M19.2958 8.63323L12.4638 17.9046C12.3009 18.1208 12.0579 18.2624 11.7895 18.2977C11.5211 18.333 11.2498 18.2589 11.0365 18.0922L6.15782 14.1917C5.7273 13.8471 5.65759 13.2188 6.00212 12.7883C6.34664 12.3578 6.97493 12.2881 7.40545 12.6326L11.4737 15.8874L17.6889 7.45248C17.8927 7.14665 18.2481 6.97756 18.6139 7.01235C18.9798 7.04714 19.2969 7.28018 19.4395 7.61893C19.582 7.95769 19.5268 8.34736 19.2958 8.63323Z" fill="#031A26"/>
</g>
</svg>
