<svg width="27" height="22" viewBox="0 0 27 22" fill="none" xmlns="http://www.w3.org/2000/svg">
<path id="Shape 24" d="M25.0019 3.22045C25.4954 3.07679 25.9794 2.90216 26.4509 2.6975C25.7205 3.74435 24.8315 4.67106 23.8159 5.44445V6.05547C23.7751 9.79166 22.396 13.3894 19.9289 16.1955C18.6119 17.6674 17.0139 18.8611 15.2289 19.7065C13.2151 20.6412 11.0146 21.1036 8.79492 21.0585C7.34389 21.0649 5.90019 20.8518 4.51288 20.4265C3.1598 20.0094 1.86769 19.4155 0.669922 18.6604C0.873613 18.6897 1.07913 18.7044 1.28491 18.7045H1.94391C4.31855 18.7535 6.63488 17.9663 8.48792 16.4805C7.36596 16.4699 6.27784 16.0948 5.38788 15.4115C4.51881 14.7632 3.88 13.8539 3.56488 12.8165C3.88041 12.8989 4.20478 12.943 4.53088 12.9475C4.77326 12.9489 5.01549 12.9342 5.25592 12.9035C5.48525 12.8729 5.71259 12.8292 5.93689 12.7724C4.74382 12.5324 3.66769 11.8942 2.88489 10.9625C2.08608 10.0366 1.65606 8.84909 1.67688 7.62645V7.58245C2.03672 7.76032 2.41149 7.90625 2.79688 8.01848C3.23293 8.14025 3.68421 8.19885 4.1369 8.19249C3.39724 7.75083 2.79026 7.11793 2.37988 6.36046C1.96423 5.58271 1.75264 4.71227 1.76489 3.83049C1.76471 2.89827 2.00588 1.98184 2.4649 1.17046C3.77207 2.78913 5.40244 4.11743 7.25189 5.07048C9.14138 6.04859 11.2254 6.59246 13.3519 6.66246C13.2613 6.29136 13.217 5.91049 13.2199 5.52849C13.2192 4.11424 13.7799 2.75751 14.7789 1.75646C15.2638 1.27796 15.834 0.894386 16.4599 0.625477C17.1042 0.346414 17.7998 0.205385 18.5019 0.211476C19.2445 0.201179 19.9798 0.3577 20.6539 0.669483C21.289 0.969034 21.8684 1.37488 22.3669 1.8695C22.9691 1.77785 23.5587 1.61674 24.1239 1.38945C24.6782 1.17122 25.2207 0.923909 25.7489 0.648487C25.3072 1.83583 24.4897 2.8464 23.4209 3.52648C23.9561 3.47246 24.4852 3.37001 25.0019 3.22045Z" fill="#FFFAF3"/>
</svg>
