<svg width="197" height="54" viewBox="0 0 197 54" fill="none" xmlns="http://www.w3.org/2000/svg">
<g id="EdgeKart">
<g id="Logo">
<g id="Logotype">
<path d="M63.356 34.2704V15.7448H75.0271V18.3384H66.2143V23.6579H74.2861V26.2515H66.2143V31.6768H75.1594V34.2704H63.356Z" fill="white"/>
<path d="M83.6175 34.6409C82.5413 34.6409 81.5444 34.3762 80.627 33.8469C79.7095 33.3176 78.9685 32.559 78.4039 31.571C77.8569 30.5653 77.5835 29.3567 77.5835 27.9452V27.5483C77.5835 26.1544 77.8569 24.9547 78.4039 23.949C78.9508 22.9433 79.683 22.1759 80.6005 21.6466C81.5179 21.1173 82.5236 20.8526 83.6175 20.8526C84.4644 20.8526 85.1701 20.9585 85.7347 21.1702C86.3169 21.3819 86.7933 21.6554 87.1638 21.9906C87.5343 22.3082 87.8166 22.6434 88.0107 22.9963H88.4341V15.7448H91.16V34.2704H88.4871V32.4178H88.0636C87.7284 32.9824 87.2168 33.4941 86.5287 33.9528C85.8582 34.4115 84.8878 34.6409 83.6175 34.6409ZM84.385 32.259C85.5671 32.259 86.5375 31.8797 87.2962 31.121C88.0725 30.3624 88.4606 29.2773 88.4606 27.8658V27.6277C88.4606 26.2338 88.0813 25.1576 87.3226 24.3989C86.564 23.6403 85.5847 23.2609 84.385 23.2609C83.2205 23.2609 82.2501 23.6403 81.4738 24.3989C80.7152 25.1576 80.3358 26.2338 80.3358 27.6277V27.8658C80.3358 29.2773 80.7152 30.3624 81.4738 31.121C82.2501 31.8797 83.2205 32.259 84.385 32.259Z" fill="white"/>
<path d="M94.5377 27.8129V27.4159C94.5377 26.0398 94.8111 24.8665 95.3581 23.8961C95.9227 22.9257 96.6637 22.1759 97.5811 21.6466C98.4986 21.1173 99.5043 20.8526 100.598 20.8526C101.868 20.8526 102.839 21.0908 103.509 21.5672C104.197 22.0435 104.7 22.5552 105.018 23.1021H105.441V21.2231H108.088V36.9434C108.088 37.7373 107.85 38.3725 107.373 38.8488C106.914 39.3252 106.279 39.5634 105.468 39.5634H96.6813V37.1815H104.621C105.132 37.1815 105.388 36.9169 105.388 36.3876V32.2326H104.965C104.771 32.5502 104.497 32.8766 104.144 33.2118C103.792 33.547 103.324 33.8205 102.742 34.0322C102.177 34.2439 101.463 34.3498 100.598 34.3498C99.5043 34.3498 98.4898 34.094 97.5547 33.5823C96.6372 33.053 95.905 32.3032 95.3581 31.3328C94.8111 30.3447 94.5377 29.1715 94.5377 27.8129ZM101.339 31.9679C102.521 31.9679 103.492 31.5974 104.25 30.8564C105.027 30.0977 105.415 29.0568 105.415 27.7335V27.4953C105.415 26.1368 105.035 25.0958 104.277 24.3725C103.518 23.6314 102.539 23.2609 101.339 23.2609C100.175 23.2609 99.2043 23.6314 98.428 24.3725C97.6694 25.0958 97.29 26.1368 97.29 27.4953V27.7335C97.29 29.0568 97.6694 30.0977 98.428 30.8564C99.2043 31.5974 100.175 31.9679 101.339 31.9679Z" fill="white"/>
<path d="M118.082 34.6409C116.759 34.6409 115.603 34.3674 114.615 33.8205C113.627 33.2559 112.851 32.4708 112.286 31.4651C111.739 30.4418 111.466 29.2597 111.466 27.9188V27.6012C111.466 26.2427 111.739 25.0605 112.286 24.0549C112.833 23.0316 113.592 22.2464 114.562 21.6995C115.55 21.1349 116.688 20.8526 117.976 20.8526C119.229 20.8526 120.323 21.1349 121.258 21.6995C122.211 22.2464 122.952 23.0139 123.481 24.0019C124.01 24.99 124.275 26.1456 124.275 27.4689V28.501H114.245C114.28 29.6478 114.659 30.5653 115.383 31.2534C116.124 31.9238 117.041 32.259 118.135 32.259C119.158 32.259 119.926 32.0297 120.438 31.571C120.967 31.1122 121.373 30.5829 121.655 29.983L123.905 31.1475C123.658 31.6415 123.296 32.162 122.819 32.7089C122.361 33.2559 121.752 33.7146 120.993 34.0851C120.235 34.4556 119.264 34.6409 118.082 34.6409ZM114.271 26.4103H121.496C121.426 25.4222 121.073 24.6547 120.438 24.1078C119.802 23.5432 118.973 23.2609 117.95 23.2609C116.927 23.2609 116.089 23.5432 115.436 24.1078C114.801 24.6547 114.412 25.4222 114.271 26.4103Z" fill="white"/>
<path d="M127.477 34.2704V15.7448H130.335V23.4462H130.759L137.666 15.7448H141.398L133.035 24.8753L141.689 34.2704H137.851L130.759 26.4103H130.335V34.2704H127.477Z" fill="white"/>
<path d="M147.965 34.6409C147.03 34.6409 146.192 34.4821 145.451 34.1645C144.728 33.8469 144.145 33.3794 143.704 32.7619C143.281 32.1444 143.069 31.3945 143.069 30.5123C143.069 29.6125 143.281 28.8715 143.704 28.2893C144.145 27.6894 144.736 27.2395 145.478 26.9396C146.236 26.6396 147.092 26.4897 148.045 26.4897H152.014V25.6428C152.014 24.8841 151.785 24.2754 151.326 23.8167C150.868 23.358 150.162 23.1286 149.209 23.1286C148.274 23.1286 147.559 23.3491 147.065 23.7902C146.571 24.2313 146.245 24.8047 146.086 25.5105L143.546 24.69C143.757 23.9843 144.093 23.3491 144.551 22.7846C145.028 22.2023 145.654 21.7348 146.43 21.3819C147.207 21.029 148.142 20.8526 149.236 20.8526C150.929 20.8526 152.261 21.2849 153.232 22.1494C154.202 23.0139 154.687 24.2401 154.687 25.828V31.2004C154.687 31.7297 154.934 31.9944 155.428 31.9944H156.54V34.2704H154.502C153.885 34.2704 153.382 34.1116 152.994 33.794C152.605 33.4764 152.411 33.0442 152.411 32.4972V32.4178H152.014C151.873 32.6825 151.662 32.9912 151.379 33.3441C151.097 33.697 150.682 34.0057 150.135 34.2704C149.588 34.5174 148.865 34.6409 147.965 34.6409ZM148.362 32.3914C149.456 32.3914 150.338 32.0826 151.009 31.4651C151.679 30.8299 152.014 29.9654 152.014 28.8715V28.6069H148.203C147.48 28.6069 146.898 28.7657 146.457 29.0832C146.016 29.3832 145.795 29.8331 145.795 30.433C145.795 31.0328 146.024 31.5092 146.483 31.8621C146.942 32.2149 147.568 32.3914 148.362 32.3914Z" fill="white"/>
<path d="M159.19 34.2704V21.2231H161.863V22.7581H162.287C162.498 22.2111 162.834 21.8142 163.292 21.5672C163.769 21.3025 164.351 21.1702 165.039 21.1702H166.601V23.6314H164.933C164.051 23.6314 163.328 23.8784 162.763 24.3725C162.199 24.8488 161.916 25.5898 161.916 26.5955V34.2704H159.19Z" fill="white"/>
<path d="M174.321 34.2704C173.527 34.2704 172.892 34.0322 172.415 33.5558C171.957 33.0795 171.727 32.4443 171.727 31.6503V23.5256H168.128V21.2231H171.727V16.9093H174.453V21.2231H178.344V23.5256H174.453V31.174C174.453 31.7033 174.7 31.9679 175.194 31.9679H177.92V34.2704H174.321Z" fill="white"/>
</g>
<g id="Logomark">
<g id="Group 4">
<rect id="Rectangle 1" x="24.784" y="29.7456" width="18.7071" height="18.7071" transform="rotate(-45 24.784 29.7456)" stroke="white" stroke-width="2.4811"/>
<rect id="Rectangle 2" x="24.784" y="22.2545" width="18.7071" height="18.7071" transform="rotate(-45 24.784 22.2545)" stroke="white" stroke-width="2.4811"/>
</g>
</g>
</g>
</g>
</svg>
