<svg width="178" height="59" viewBox="0 0 178 59" fill="none" xmlns="http://www.w3.org/2000/svg">
<g id="Harvest">
<g id="Logo">
<g id="Logotype">
<path d="M64.5519 29.4168H51.8592V39.8046H50.722V18.353H51.8592V28.4026H64.5519V18.353H65.689V39.8046H64.5519V29.4168Z" fill="white"/>
<path d="M84.5993 39.8046C83.7593 39.8046 83.3188 39.3743 83.2778 38.5138V37.3767H83.1549C82.7861 38.1757 82.2022 38.8416 81.4031 39.3743C80.6041 39.907 79.5284 40.1734 78.1762 40.1734C76.5576 40.1734 75.3078 39.7841 74.4267 39.0055C73.5457 38.2269 73.1052 37.1308 73.1052 35.7171C73.1052 35.041 73.2077 34.4263 73.4126 33.8731C73.6174 33.3199 73.9555 32.8487 74.4267 32.4594C74.9185 32.0496 75.5434 31.7423 76.3015 31.5374C77.08 31.312 78.0327 31.1993 79.1596 31.1993H83.2471V29.1095C83.2471 27.6343 82.8885 26.5484 82.1714 25.8518C81.4543 25.1347 80.3889 24.7762 78.9752 24.7762C76.7829 24.7762 75.2668 25.6981 74.4267 27.5421L73.6584 27.0197C74.0887 26.0567 74.7238 25.2884 75.5639 24.7147C76.4039 24.1205 77.5513 23.8234 79.006 23.8234C80.7475 23.8234 82.069 24.2742 82.9705 25.1757C83.872 26.0567 84.3228 27.327 84.3228 28.9866V38.8518H86.7199V39.8046H84.5993ZM78.2684 39.2206C78.9445 39.2206 79.5796 39.1387 80.1738 38.9748C80.7885 38.7904 81.3212 38.5343 81.7719 38.2064C82.2227 37.8786 82.5812 37.4689 82.8476 36.9771C83.1139 36.4854 83.2471 35.9117 83.2471 35.2561V32.0599H79.1596C77.4386 32.0599 76.1888 32.3569 75.4102 32.9511C74.6316 33.5248 74.2424 34.2931 74.2424 35.2561V36.1166C74.2424 37.141 74.6111 37.9196 75.3487 38.4523C76.1068 38.9645 77.08 39.2206 78.2684 39.2206Z" fill="white"/>
<path d="M92.9421 39.8046V24.1922H94.0178V26.9275H94.1407C94.4686 26.1899 95.0013 25.5547 95.7388 25.022C96.4764 24.4688 97.5418 24.1922 98.9351 24.1922H100.103V25.2064H98.7507C98.1155 25.2064 97.5111 25.2884 96.9374 25.4523C96.3637 25.6162 95.8618 25.862 95.4315 26.1899C95.0013 26.5177 94.6529 26.9275 94.3866 27.4192C94.1407 27.8904 94.0178 28.4436 94.0178 29.0788V39.8046H92.9421Z" fill="white"/>
<path d="M104.229 24.1922H105.366L110.591 38.6367H110.683L115.908 24.1922H116.983L111.236 39.8046H109.976L104.229 24.1922Z" fill="white"/>
<path d="M128.418 40.1734C126.349 40.1734 124.71 39.4767 123.501 38.0835C122.313 36.6903 121.719 34.6619 121.719 31.9984C121.719 29.3554 122.302 27.3372 123.47 25.944C124.638 24.5303 126.246 23.8234 128.295 23.8234C129.258 23.8234 130.129 24.0078 130.908 24.3766C131.707 24.7454 132.383 25.2679 132.936 25.944C133.51 26.6201 133.95 27.4397 134.258 28.4026C134.565 29.3451 134.719 30.4003 134.719 31.5681V32.0599H122.856V32.8896C122.856 33.8526 122.979 34.7234 123.224 35.5019C123.47 36.2805 123.829 36.9464 124.3 37.4996C124.792 38.0528 125.376 38.483 126.052 38.7904C126.748 39.0772 127.537 39.2206 128.418 39.2206C130.897 39.2206 132.608 38.0323 133.551 35.6556L134.38 36.1166C133.909 37.3459 133.172 38.3294 132.168 39.067C131.164 39.8046 129.914 40.1734 128.418 40.1734ZM128.295 24.7762C127.435 24.7762 126.667 24.9298 125.99 25.2371C125.335 25.524 124.771 25.944 124.3 26.4972C123.829 27.0504 123.47 27.7163 123.224 28.4948C122.979 29.2734 122.856 30.1339 122.856 31.0764V31.1993H133.551V31.0149C133.551 30.0725 133.418 29.2222 133.151 28.4641C132.905 27.6855 132.547 27.0299 132.076 26.4972C131.625 25.944 131.072 25.524 130.416 25.2371C129.781 24.9298 129.074 24.7762 128.295 24.7762Z" fill="white"/>
<path d="M146.216 40.1734C144.925 40.1734 143.798 39.9377 142.835 39.4665C141.893 38.9953 141.063 38.2577 140.346 37.2537L141.176 36.6391C141.872 37.5611 142.61 38.2269 143.389 38.6367C144.188 39.026 145.14 39.2206 146.247 39.2206C147.64 39.2206 148.695 38.9338 149.412 38.3601C150.129 37.7864 150.488 36.9566 150.488 35.8707C150.488 34.8258 150.181 34.0473 149.566 33.535C148.972 33.0228 148.05 32.6643 146.8 32.4594L145.478 32.2443C144.782 32.1418 144.147 31.9881 143.573 31.7833C143.02 31.5784 142.538 31.312 142.129 30.9842C141.739 30.6359 141.432 30.2159 141.207 29.7242C141.002 29.2324 140.899 28.6383 140.899 27.9416C140.899 27.2655 141.022 26.6713 141.268 26.1591C141.534 25.6469 141.893 25.2167 142.344 24.8683C142.815 24.52 143.358 24.2639 143.973 24.1C144.608 23.9156 145.284 23.8234 146.001 23.8234C147.312 23.8234 148.378 24.059 149.197 24.5303C150.017 24.981 150.693 25.5137 151.225 26.1284L150.457 26.8353C150.232 26.5689 149.976 26.3128 149.689 26.0669C149.422 25.8211 149.115 25.6059 148.767 25.4215C148.419 25.2167 148.009 25.063 147.538 24.9605C147.087 24.8376 146.564 24.7762 145.97 24.7762C144.741 24.7762 143.757 25.0425 143.02 25.5752C142.303 26.1079 141.944 26.8865 141.944 27.9109C141.944 28.9558 142.251 29.7242 142.866 30.2159C143.481 30.6871 144.413 31.0252 145.663 31.2301L146.984 31.4452C148.439 31.6706 149.556 32.1213 150.334 32.7974C151.133 33.4531 151.533 34.4468 151.533 35.7785C151.533 37.1718 151.062 38.2577 150.119 39.0362C149.177 39.7943 147.876 40.1734 146.216 40.1734Z" fill="white"/>
<path d="M160.778 39.8046C159.897 39.8046 159.456 39.3743 159.456 38.5138V25.1449H156.629V24.1922H158.657C159.006 24.1922 159.231 24.1205 159.333 23.9771C159.456 23.8337 159.518 23.5878 159.518 23.2395V19.7667H160.532V24.1922H164.189V25.1449H160.532V38.8518H163.943V39.8046H160.778Z" fill="white"/>
</g>
<g id="Logomark">
<path id="Ellipse 1" d="M13.6265 29C13.6265 34.0142 15.5676 38.6533 17.8632 42.3832C20.1575 46.1109 22.7904 48.9054 24.1373 50.2235C24.5097 50.588 25.0726 50.588 25.445 50.2235C26.792 48.9054 29.4248 46.1109 31.7191 42.3832C34.0147 38.6533 35.9559 34.0142 35.9559 29C35.9559 23.9858 34.0147 19.3468 31.7191 15.6168C29.4248 11.8892 26.7919 9.09461 25.445 7.77652C25.0726 7.41202 24.5097 7.41202 24.1373 7.77652C22.7904 9.09462 20.1575 11.8892 17.8632 15.6168C15.5676 19.3468 13.6265 23.9858 13.6265 29Z" stroke="white" stroke-width="0.720303"/>
<path id="Star 1" d="M24.7911 22.2294L26.2997 26.8159C26.3651 27.0148 26.5138 27.1754 26.7071 27.2559L30.8969 29L26.7071 30.7442C26.5138 30.8247 26.3651 30.9852 26.2997 31.1841L24.7911 35.7707L23.2825 31.1841C23.2171 30.9852 23.0684 30.8247 22.8751 30.7442L18.6853 29L22.8751 27.2559C23.0684 27.1754 23.2171 27.0148 23.2825 26.8159L24.7911 22.2294Z" stroke="white" stroke-width="0.720303"/>
<g id="Group 1">
<path id="Vector 2" d="M24.7911 15.3143L29.1129 11.7128" stroke="white" stroke-width="0.720303"/>
<path id="Vector 3" d="M24.7911 18.1955L30.5535 13.8737" stroke="white" stroke-width="0.720303"/>
<path id="Vector 4" d="M24.7911 21.0767L31.9941 16.0346" stroke="white" stroke-width="0.720303"/>
</g>
<g id="Group 2">
<path id="Vector 2_2" d="M24.7911 42.6858L20.4693 46.2873" stroke="white" stroke-width="0.720303"/>
<path id="Vector 3_2" d="M24.7911 39.8046L19.0287 44.1264" stroke="white" stroke-width="0.720303"/>
<path id="Vector 4_2" d="M24.7911 36.9234L17.5881 41.9655" stroke="white" stroke-width="0.720303"/>
</g>
<path id="Vector 5" d="M24.7911 7.39093V22.5173" stroke="white" stroke-width="0.720303"/>
<path id="Vector 6" d="M24.7911 35.4828V50.6091" stroke="white" stroke-width="0.720303"/>
</g>
</g>
</g>
</svg>
