<?xml version="1.0" encoding="UTF-8"?>
<!DOCTYPE svg PUBLIC "-//W3C//DTD SVG 1.1//EN" "http://www.w3.org/Graphics/SVG/1.1/DTD/svg11.dtd">
<svg xmlns="http://www.w3.org/2000/svg" version="1.1" width="1259px" height="195px" style="shape-rendering:geometricPrecision; text-rendering:geometricPrecision; image-rendering:optimizeQuality; fill-rule:evenodd; clip-rule:evenodd" xmlns:xlink="http://www.w3.org/1999/xlink">
<g><path style="opacity:0.955" fill="#feaf75" d="M 578.5,14.5 C 597.878,13.6793 614.711,19.6793 629,32.5C 629.667,33.5 629.667,34.5 629,35.5C 622.652,42.0148 616.152,48.3481 609.5,54.5C 602.024,47.0301 593.024,42.6967 582.5,41.5C 577.416,41.8412 572.749,43.3412 568.5,46C 563.829,53.6634 565.496,59.6634 573.5,64C 583.755,68.1962 594.088,72.1962 604.5,76C 626.877,87.2674 634.71,105.101 628,129.5C 622.911,142.256 613.745,150.423 600.5,154C 582.623,158.951 564.956,158.284 547.5,152C 538.508,148.167 531.175,142.334 525.5,134.5C 531.833,127.5 538.5,120.833 545.5,114.5C 558.499,129.004 574.165,133.17 592.5,127C 600.132,120.749 600.465,114.082 593.5,107C 579.201,100.675 564.868,94.3413 550.5,88C 536.49,77.6524 531.323,63.8191 535,46.5C 538.15,34.3551 545.317,25.5218 556.5,20C 563.727,17.1931 571.061,15.3598 578.5,14.5 Z"/></g>
<g><path style="opacity:0.982" fill="#feaf75" d="M 6.5,17.5 C 16.8333,17.5 27.1667,17.5 37.5,17.5C 37.5,35.1667 37.5,52.8333 37.5,70.5C 55.1667,70.5 72.8333,70.5 90.5,70.5C 90.5,52.8333 90.5,35.1667 90.5,17.5C 101.167,17.5 111.833,17.5 122.5,17.5C 122.5,63.1667 122.5,108.833 122.5,154.5C 111.833,154.5 101.167,154.5 90.5,154.5C 90.5,135.5 90.5,116.5 90.5,97.5C 72.8333,97.5 55.1667,97.5 37.5,97.5C 37.5,116.5 37.5,135.5 37.5,154.5C 27.1667,154.5 16.8333,154.5 6.5,154.5C 6.5,108.833 6.5,63.1667 6.5,17.5 Z"/></g>
<g><path style="opacity:0.965" fill="#feaf75" d="M 1122.5,17.5 C 1132.5,17.5 1142.5,17.5 1152.5,17.5C 1169.76,62.9553 1187.43,108.289 1205.5,153.5C 1194.19,154.499 1182.85,154.832 1171.5,154.5C 1169.24,146.718 1166.57,139.052 1163.5,131.5C 1145.83,130.167 1128.17,130.167 1110.5,131.5C 1107.4,138.977 1104.4,146.477 1101.5,154C 1090.5,154.667 1079.5,154.667 1068.5,154C 1086.92,108.662 1104.92,63.162 1122.5,17.5 Z M 1136.5,58.5 C 1142.93,73.4619 1148.6,88.7952 1153.5,104.5C 1142.48,104.832 1131.48,104.499 1120.5,103.5C 1126.24,88.6163 1131.57,73.6163 1136.5,58.5 Z"/></g>
<g><path style="opacity:0.99" fill="#feaf75" d="M 1219.5,17.5 C 1229.83,17.5 1240.17,17.5 1250.5,17.5C 1250.5,63.1667 1250.5,108.833 1250.5,154.5C 1240.17,154.5 1229.83,154.5 1219.5,154.5C 1219.5,108.833 1219.5,63.1667 1219.5,17.5 Z"/></g>
<g><path style="opacity:0.96" fill="#fefffe" d="M 183.5,57.5 C 204.546,55.449 221.712,62.449 235,78.5C 246.838,98.923 246.172,118.923 233,138.5C 218.441,154.13 200.608,159.964 179.5,156C 150.088,147.571 136.921,128.071 140,97.5C 145.779,74.55 160.279,61.2167 183.5,57.5 Z M 188.5,85.5 C 208.05,87.5843 215.216,98.251 210,117.5C 204.246,127.206 195.746,130.706 184.5,128C 173.846,122.862 169.346,114.362 171,102.5C 173.458,93.2068 179.291,87.5401 188.5,85.5 Z"/></g>
<g><path style="opacity:0.957" fill="#fefffe" d="M 307.5,57.5 C 320.069,56.5766 330.735,60.5766 339.5,69.5C 357.315,55.019 375.982,53.8524 395.5,66C 401.534,71.5644 405.367,78.3978 407,86.5C 407.5,109.498 407.667,132.498 407.5,155.5C 397.167,155.5 386.833,155.5 376.5,155.5C 376.667,135.164 376.5,114.831 376,94.5C 373.581,88.7791 369.248,85.4458 363,84.5C 355.325,85.1693 350.325,89.1693 348,96.5C 347.5,116.164 347.333,135.831 347.5,155.5C 337.167,155.5 326.833,155.5 316.5,155.5C 316.667,135.164 316.5,114.831 316,94.5C 313.292,88.475 308.626,85.1417 302,84.5C 295.374,85.1417 290.708,88.475 288,94.5C 287.5,114.831 287.333,135.164 287.5,155.5C 277.167,155.5 266.833,155.5 256.5,155.5C 256.5,123.5 256.5,91.5 256.5,59.5C 266.833,59.5 277.167,59.5 287.5,59.5C 287.338,61.5273 287.505,63.5273 288,65.5C 293.856,60.9799 300.356,58.3132 307.5,57.5 Z"/></g>
<g><path style="opacity:0.959" fill="#fefffe" d="M 463.5,57.5 C 504.106,57.1058 522.44,77.1058 518.5,117.5C 496.167,117.5 473.833,117.5 451.5,117.5C 452.741,123.914 456.408,128.414 462.5,131C 475.008,135.198 486.008,132.698 495.5,123.5C 501.5,128.833 507.167,134.5 512.5,140.5C 505.88,148.981 497.213,154.148 486.5,156C 467.632,159.699 450.632,155.699 435.5,144C 420.901,128.353 416.734,110.187 423,89.5C 430.676,71.2689 444.176,60.6022 463.5,57.5 Z M 466.5,81.5 C 478.457,79.9717 486.457,84.805 490.5,96C 477.504,96.4999 464.504,96.6666 451.5,96.5C 453.646,88.6029 458.646,83.6029 466.5,81.5 Z"/></g>
<g><path style="opacity:0.97" fill="#fefffe" d="M 675.5,194.5 C 665.5,194.5 655.5,194.5 645.5,194.5C 645.5,149.5 645.5,104.5 645.5,59.5C 655.833,59.5 666.167,59.5 676.5,59.5C 676.215,61.288 676.548,62.9547 677.5,64.5C 694.411,54.9543 711.077,55.4543 727.5,66C 743.747,79.7307 749.914,97.2307 746,118.5C 737.504,148.842 717.671,161.009 686.5,155C 682.637,153.819 679.137,151.986 676,149.5C 675.5,164.496 675.333,179.496 675.5,194.5 Z M 691.5,85.5 C 712.187,87.5196 719.354,98.5196 713,118.5C 707.125,127.347 698.958,130.514 688.5,128C 677.408,123.096 672.908,114.596 675,102.5C 677.349,93.6522 682.849,87.9855 691.5,85.5 Z"/></g>
<g><path style="opacity:0.966" fill="#fefffe" d="M 796.5,57.5 C 807.56,56.7199 817.394,59.7199 826,66.5C 826.497,64.1902 826.663,61.8568 826.5,59.5C 836.5,59.5 846.5,59.5 856.5,59.5C 856.5,91.5 856.5,123.5 856.5,155.5C 846.5,155.5 836.5,155.5 826.5,155.5C 826.663,153.143 826.497,150.81 826,148.5C 821.573,152.463 816.406,154.963 810.5,156C 782.936,159.415 765.103,147.915 757,121.5C 751.59,97.7177 758.423,78.551 777.5,64C 783.586,60.6944 789.92,58.5277 796.5,57.5 Z M 804.5,85.5 C 815.697,85.1687 823.197,90.1687 827,100.5C 829.788,113.422 825.288,122.589 813.5,128C 799.081,130.576 790.248,124.743 787,110.5C 786.457,97.5555 792.29,89.2221 804.5,85.5 Z"/></g>
<g><path style="opacity:0.952" fill="#fefffe" d="M 914.5,57.5 C 932.338,55.6122 947.671,60.7789 960.5,73C 954.167,79.3333 947.833,85.6667 941.5,92C 937,89.2672 932,87.2672 926.5,86C 906.888,86.3736 899.055,96.2069 903,115.5C 908.321,126.734 917.155,130.9 929.5,128C 933.885,126.726 937.719,124.56 941,121.5C 947.624,127.122 953.957,133.122 960,139.5C 960.667,140.5 960.667,141.5 960,142.5C 935.618,161.917 910.785,162.417 885.5,144C 873.062,131.35 868.229,116.183 871,98.5C 876.316,75.0156 890.816,61.3489 914.5,57.5 Z"/></g>
<g><path style="opacity:0.959" fill="#fefffe" d="M 1007.5,57.5 C 1048.11,57.1058 1066.44,77.1058 1062.5,117.5C 1040.17,117.5 1017.83,117.5 995.5,117.5C 996.741,123.914 1000.41,128.414 1006.5,131C 1019.01,135.198 1030.01,132.698 1039.5,123.5C 1045.5,128.833 1051.17,134.5 1056.5,140.5C 1049.88,148.981 1041.21,154.148 1030.5,156C 1011.63,159.699 994.632,155.699 979.5,144C 964.901,128.353 960.734,110.187 967,89.5C 974.676,71.2689 988.176,60.6022 1007.5,57.5 Z M 1010.5,81.5 C 1022.46,79.9717 1030.46,84.805 1034.5,96C 1021.5,96.4999 1008.5,96.6666 995.5,96.5C 997.646,88.6029 1002.65,83.6029 1010.5,81.5 Z"/></g>
</svg>
