<svg width="254" height="51" viewBox="0 0 254 51" fill="none" xmlns="http://www.w3.org/2000/svg">
<g id="InfinityParker">
<g id="Logo">
<g id="Logotype">
<path d="M79.1104 31.8363V18.8185C79.1104 18.5216 79.058 18.3121 78.9532 18.1898C78.8659 18.0676 78.7 17.9978 78.4556 17.9803L76.8054 17.7446V17.0635C76.98 17.1159 78.8135 17.1421 82.3059 17.1421C83.3362 17.1421 84.1569 17.1159 84.768 17.0635V17.7708L83.1179 18.0065C82.8734 18.0239 82.6988 18.0851 82.594 18.1898C82.5067 18.2946 82.4631 18.5041 82.4631 18.8185V31.8363C82.4631 32.1506 82.5067 32.3514 82.594 32.4387C82.6813 32.5261 82.856 32.5784 83.1179 32.5959L84.768 32.7269V33.6174C84.4188 33.5825 83.9124 33.5563 83.2489 33.5388C82.6028 33.5214 81.7821 33.5127 80.7867 33.5127C79.7914 33.5127 78.962 33.5214 78.2984 33.5388C77.6523 33.5563 77.1547 33.5825 76.8054 33.6174V32.7269L78.4556 32.5959C78.7175 32.561 78.8921 32.4999 78.9794 32.4126C79.0667 32.3252 79.1104 32.1332 79.1104 31.8363Z" fill="white"/>
<path d="M99.0305 33.5912C98.1224 33.5388 97.1096 33.5127 95.9921 33.5127C94.892 33.5127 93.8879 33.5388 92.9799 33.5912V32.9364L93.8967 32.7269C94.2808 32.6745 94.4729 32.334 94.4729 31.7053V27.3049C94.4729 26.9208 94.4554 26.589 94.4205 26.3096C94.4031 26.0128 94.3419 25.7683 94.2372 25.5762C94.1499 25.3667 94.0014 25.2183 93.7919 25.1309C93.5998 25.0262 93.3291 24.9738 92.9799 24.9738C92.5783 24.9738 92.1505 25.1047 91.6965 25.3667C91.2599 25.6111 90.8932 25.908 90.5964 26.2572V31.9935C90.5964 32.2729 90.8059 32.4649 91.225 32.5697L91.9846 32.9364V33.5912C91.7401 33.5563 91.5044 33.5388 91.2774 33.5388C91.0504 33.5214 90.7797 33.5127 90.4654 33.5127H88.8676C88.3089 33.5127 87.7413 33.5214 87.1651 33.5388C86.6063 33.5388 86.196 33.5563 85.934 33.5912V32.9364L87.0603 32.6745C87.2349 32.6396 87.3659 32.561 87.4532 32.4387C87.5405 32.3165 87.5842 32.1332 87.5842 31.8887V26.7287C87.5842 26.1874 87.4707 25.8207 87.2437 25.6286C87.0341 25.4365 86.65 25.2968 86.0912 25.2095V24.7119C86.3706 24.642 86.6936 24.5547 87.0603 24.4499C87.4445 24.3452 87.8199 24.2142 88.1866 24.057C88.5533 23.8824 88.8938 23.6816 89.2081 23.4546C89.5225 23.2101 89.7582 22.922 89.9153 22.5902H90.5964V25.1309C91.1202 24.4849 91.6877 23.9785 92.2989 23.6118C92.9101 23.2451 93.5212 23.0617 94.1324 23.0617C95.1452 23.0617 95.9572 23.3586 96.5683 23.9523C97.1795 24.546 97.4851 25.4453 97.4851 26.6501V31.6268C97.4851 31.976 97.5287 32.2292 97.616 32.3864C97.7034 32.5435 97.878 32.657 98.1399 32.7269L99.0305 32.9364V33.5912Z" fill="white"/>
<path d="M114.569 33.6174C114.29 33.5825 113.871 33.5563 113.312 33.5388C112.771 33.5214 112.151 33.5127 111.452 33.5127C110.754 33.5127 110.125 33.5214 109.567 33.5388C109.008 33.5563 108.597 33.5825 108.335 33.6174V32.9626L109.331 32.6745C109.872 32.5697 110.143 32.2554 110.143 31.7315V25.7334C110.143 25.3143 110.038 25.0087 109.828 24.8166C109.654 24.6595 109.331 24.5198 108.859 24.3975V24.4761L105.061 24.5809V30.9196C105.061 31.9673 105.428 32.5522 106.161 32.6745L107.602 32.9364V33.5912C106.502 33.5388 105.341 33.5127 104.118 33.5127H103.306C102.713 33.5127 102.119 33.5214 101.525 33.5388C100.932 33.5388 100.504 33.5563 100.242 33.5912V32.9626L101.054 32.7793C101.316 32.7269 101.517 32.6745 101.656 32.6221C101.796 32.5522 101.901 32.4649 101.971 32.3602C102.04 32.2379 102.084 32.0808 102.102 31.8887C102.119 31.6966 102.128 31.4434 102.128 31.1291V24.8952C101.796 24.8254 101.159 24.773 100.216 24.738V24.3452C100.635 24.1705 100.967 24.0221 101.211 23.8999C101.455 23.7602 101.639 23.6379 101.761 23.5332C101.901 23.4284 101.988 23.3236 102.023 23.2189C102.058 23.1141 102.075 23.0006 102.075 22.8784C102.075 22.7212 102.093 22.4505 102.128 22.0664C102.163 21.6648 102.241 21.2195 102.363 20.7305C102.503 20.2241 102.695 19.709 102.94 19.1852C103.184 18.6613 103.507 18.1811 103.909 17.7446C104.328 17.308 104.834 16.95 105.428 16.6707C106.022 16.3738 106.738 16.2254 107.576 16.2254C107.716 16.2254 107.847 16.2341 107.969 16.2516C108.108 16.2516 108.248 16.2603 108.388 16.2778C108.947 16.3651 109.427 16.5222 109.828 16.7492C110.23 16.9762 110.431 17.3342 110.431 17.8231C110.431 18.3121 110.3 18.705 110.038 19.0018C109.794 19.2987 109.427 19.4471 108.938 19.4471C108.554 19.4471 108.239 19.3511 107.995 19.159C107.768 18.9494 107.567 18.7312 107.393 18.5042C107.235 18.2597 107.096 18.0414 106.973 17.8493C106.851 17.6398 106.729 17.535 106.607 17.535C106.153 17.535 105.812 17.666 105.585 17.9279C105.376 18.1724 105.219 18.4954 105.114 18.897C105.026 19.2812 104.983 19.7178 104.983 20.2067V22.826C104.983 23.1228 104.992 23.3411 105.009 23.4808L108.859 23.5594V23.6641L109.567 23.4284C109.951 23.2887 110.326 23.1403 110.693 22.9831C111.06 22.8085 111.391 22.6252 111.688 22.4331C112.002 22.2235 112.247 22.014 112.422 21.8044C112.544 21.8044 112.657 21.8132 112.762 21.8306C112.867 21.8306 112.98 21.8306 113.103 21.8306V31.8101C113.103 32.072 113.137 32.2641 113.207 32.3864C113.295 32.5086 113.452 32.5959 113.679 32.6483L114.569 32.9626V33.6174Z" fill="white"/>
<path d="M128.856 33.5912C127.947 33.5388 126.935 33.5127 125.817 33.5127C124.717 33.5127 123.713 33.5388 122.805 33.5912V32.9364L123.722 32.7269C124.106 32.6745 124.298 32.334 124.298 31.7053V27.3049C124.298 26.9208 124.28 26.589 124.246 26.3096C124.228 26.0128 124.167 25.7683 124.062 25.5762C123.975 25.3667 123.826 25.2183 123.617 25.1309C123.425 25.0262 123.154 24.9738 122.805 24.9738C122.403 24.9738 121.976 25.1047 121.522 25.3667C121.085 25.6111 120.718 25.908 120.421 26.2572V31.9935C120.421 32.2729 120.631 32.4649 121.05 32.5697L121.81 32.9364V33.5912C121.565 33.5563 121.329 33.5388 121.102 33.5388C120.875 33.5214 120.605 33.5127 120.29 33.5127H118.693C118.134 33.5127 117.566 33.5214 116.99 33.5388C116.431 33.5388 116.021 33.5563 115.759 33.5912V32.9364L116.885 32.6745C117.06 32.6396 117.191 32.561 117.278 32.4387C117.366 32.3165 117.409 32.1332 117.409 31.8887V26.7287C117.409 26.1874 117.296 25.8207 117.069 25.6286C116.859 25.4365 116.475 25.2968 115.916 25.2095V24.7119C116.196 24.642 116.519 24.5547 116.885 24.4499C117.27 24.3452 117.645 24.2142 118.012 24.057C118.378 23.8824 118.719 23.6816 119.033 23.4546C119.348 23.2101 119.583 22.922 119.74 22.5902H120.421V25.1309C120.945 24.4849 121.513 23.9785 122.124 23.6118C122.735 23.2451 123.346 23.0617 123.957 23.0617C124.97 23.0617 125.782 23.3586 126.393 23.9523C127.005 24.546 127.31 25.4453 127.31 26.6501V31.6268C127.31 31.976 127.354 32.2292 127.441 32.3864C127.528 32.5435 127.703 32.657 127.965 32.7269L128.856 32.9364V33.5912Z" fill="white"/>
<path d="M133.262 17.4041C133.716 17.4041 134.101 17.5787 134.415 17.9279C134.747 18.2597 134.913 18.6526 134.913 19.1066C134.913 19.5082 134.747 19.8749 134.415 20.2067C134.101 20.5385 133.708 20.7043 133.236 20.7043C132.782 20.7043 132.398 20.5559 132.084 20.2591C131.787 19.9448 131.639 19.5606 131.639 19.1066C131.639 18.6526 131.796 18.2597 132.11 17.9279C132.424 17.5787 132.808 17.4041 133.262 17.4041ZM135.908 33.6174C135.629 33.5825 135.209 33.5563 134.651 33.5388C134.092 33.5214 133.463 33.5127 132.765 33.5127C132.066 33.5127 131.438 33.5214 130.879 33.5388C130.32 33.5563 129.901 33.5825 129.622 33.6174V32.9364L130.617 32.6745C131.158 32.5697 131.429 32.2467 131.429 31.7053V26.9906C131.429 26.5715 131.324 26.266 131.115 26.0739C130.905 25.8818 130.486 25.7159 129.857 25.5762V24.9476C130.154 24.8777 130.495 24.7817 130.879 24.6595C131.263 24.5198 131.639 24.3713 132.005 24.2142C132.372 24.0396 132.712 23.8562 133.027 23.6641C133.341 23.4546 133.586 23.2451 133.76 23.0355C133.882 23.0355 133.996 23.0442 134.101 23.0617C134.205 23.0617 134.319 23.0617 134.441 23.0617V31.7839C134.441 32.0459 134.476 32.2467 134.546 32.3864C134.633 32.5086 134.79 32.5959 135.017 32.6483L135.908 32.9364V33.6174Z" fill="white"/>
<path d="M141.233 20.8877H141.81C141.81 21.3592 141.81 21.8306 141.81 22.3021C141.827 22.7561 141.836 23.2189 141.836 23.6903L145.11 23.6118V24.8428L141.836 24.9476V29.6623C141.836 30.4481 141.932 31.0243 142.124 31.391C142.316 31.7403 142.718 31.9149 143.329 31.9149C143.591 31.9149 143.879 31.8887 144.193 31.8363C144.508 31.7665 144.848 31.5744 145.215 31.2601L145.451 31.6268C145.328 31.8712 145.162 32.1332 144.953 32.4126C144.743 32.6745 144.481 32.9189 144.167 33.146C143.87 33.373 143.53 33.565 143.146 33.7222C142.761 33.8619 142.325 33.9317 141.836 33.9317C140.841 33.9317 140.098 33.6873 139.61 33.1983C139.121 32.6919 138.876 31.8363 138.876 30.6314V25C138.632 25 138.396 25.0087 138.169 25.0262C137.942 25.0262 137.706 25.0262 137.462 25.0262C137.217 25.0262 137.086 24.9127 137.069 24.6857C137.069 24.4587 137.191 24.2928 137.436 24.188C137.82 24.0308 138.169 23.865 138.483 23.6903C138.815 23.5157 139.086 23.3411 139.295 23.1665C139.54 22.9744 139.863 22.6863 140.264 22.3021C140.683 21.918 141.006 21.4465 141.233 20.8877Z" fill="white"/>
<path d="M151.409 36.5248C151.094 37.3106 150.632 37.8781 150.02 38.2274C149.427 38.5766 148.789 38.7512 148.108 38.7512C147.916 38.7512 147.724 38.725 147.532 38.6726C147.34 38.6377 147.174 38.5679 147.034 38.4631C146.912 38.3758 146.807 38.2623 146.72 38.1226C146.65 38.0004 146.615 37.8519 146.615 37.6773C146.615 37.1884 146.746 36.8653 147.008 36.7082C147.27 36.5685 147.584 36.4986 147.951 36.4986C148.318 36.4986 148.693 36.5423 149.077 36.6296C149.462 36.7344 149.75 36.7868 149.942 36.7868C150.029 36.7868 150.134 36.7431 150.256 36.6558C150.378 36.5685 150.501 36.4463 150.623 36.2891C150.745 36.1494 150.841 35.9748 150.911 35.7652C150.998 35.5557 151.042 35.3287 151.042 35.0842C151.042 34.8747 150.998 34.5953 150.911 34.2461C150.824 33.9492 150.719 33.6523 150.597 33.3555C150.492 33.0586 150.387 32.788 150.282 32.5435L146.851 25C146.659 24.5809 146.432 24.3277 146.17 24.2404L145.646 24.057V23.4022C147.864 23.5768 149.706 23.5768 151.173 23.4022V24.057C150.701 24.057 150.448 24.1007 150.413 24.188C150.378 24.2753 150.396 24.4063 150.466 24.5809L152.849 30.6314L154.918 25.5238C155.006 25.2794 155.041 25.0262 155.023 24.7642C155.023 24.5023 154.875 24.3364 154.578 24.2666L153.111 23.9261V23.4022C154.648 23.5768 156.254 23.5768 157.931 23.4022V23.9261L157.092 24.1356C156.953 24.1705 156.83 24.2229 156.726 24.2928C156.638 24.3452 156.542 24.4325 156.438 24.5547C156.35 24.6595 156.254 24.8166 156.149 25.0262C156.062 25.2183 155.957 25.4714 155.835 25.7858L151.409 36.5248Z" fill="white"/>
<path d="M164.897 17.1421C165.753 17.1421 166.469 17.1421 167.045 17.1421C167.622 17.1247 168.058 17.1072 168.355 17.0897L172.153 16.8802C172.485 16.8627 172.712 16.854 172.834 16.854C172.974 16.854 173.078 16.854 173.148 16.854C173.969 16.854 174.737 16.95 175.453 17.1421C176.169 17.3167 176.789 17.6049 177.313 18.0065C177.837 18.3906 178.247 18.8883 178.544 19.4995C178.858 20.1106 179.015 20.8353 179.015 21.6735C179.015 22.4418 178.858 23.1141 178.544 23.6903C178.247 24.2666 177.845 24.7555 177.339 25.1571C176.85 25.5413 176.283 25.8294 175.637 26.0215C175.008 26.2136 174.371 26.3096 173.724 26.3096C173.218 26.3096 172.773 26.2398 172.389 26.1001C172.004 25.9604 171.647 25.7246 171.315 25.3929L171.367 25.1571C171.594 25.2444 171.839 25.3056 172.101 25.3405C172.362 25.3579 172.589 25.3667 172.782 25.3667C173.218 25.3667 173.611 25.3056 173.96 25.1833C174.327 25.0611 174.641 24.869 174.903 24.6071C175.165 24.3277 175.366 23.961 175.506 23.507C175.663 23.053 175.741 22.4855 175.741 21.8044C175.741 20.652 175.453 19.7178 174.877 19.0018C174.318 18.2684 173.436 17.9017 172.231 17.9017C171.987 17.9017 171.777 17.9104 171.603 17.9279C171.446 17.9279 171.297 17.9366 171.158 17.9541C171.018 17.9716 170.896 17.9978 170.791 18.0327C170.704 18.0501 170.616 18.0763 170.529 18.1113V31.5482C170.529 31.8101 170.581 32.0371 170.686 32.2292C170.808 32.4038 171.062 32.5261 171.446 32.5959L173.017 32.884V33.6174C172.284 33.5825 171.585 33.5563 170.922 33.5388C170.276 33.5214 169.717 33.5127 169.245 33.5127C168.704 33.5127 168.145 33.5214 167.569 33.5388C167.01 33.5563 166.294 33.5738 165.421 33.5912V32.8578L166.888 32.5697C167.15 32.5173 167.325 32.4213 167.412 32.2816C167.499 32.1419 167.543 31.9062 167.543 31.5744V19.7614C167.543 19.0979 167.333 18.6526 166.914 18.4256C166.513 18.1986 165.84 18.0327 164.897 17.9279V17.1421Z" fill="white"/>
<path d="M184.417 33.9055C183.702 33.9055 183.082 33.7833 182.558 33.5388C182.051 33.2769 181.632 32.9277 181.301 32.4911C180.986 32.0546 180.75 31.5395 180.593 30.9458C180.436 30.352 180.358 29.7147 180.358 29.0337C180.358 28.1082 180.497 27.2875 180.777 26.5715C181.056 25.8556 181.432 25.2532 181.903 24.7642C182.374 24.2753 182.924 23.9086 183.553 23.6641C184.182 23.4022 184.845 23.2712 185.544 23.2712C186.033 23.2712 186.461 23.3062 186.827 23.376C187.194 23.4459 187.5 23.5244 187.744 23.6118C188.058 23.6991 188.303 23.8038 188.477 23.9261L190.206 22.9569L190.442 23.0355V31.1029C190.442 31.7839 190.739 32.1157 191.332 32.0982C191.472 32.0982 191.577 32.0808 191.647 32.0459C191.734 31.9935 191.813 31.9498 191.882 31.9149C191.935 31.88 191.996 31.8276 192.066 31.7577L192.223 32.1244C192.101 32.4562 191.917 32.7531 191.673 33.015C191.481 33.242 191.219 33.4515 190.887 33.6436C190.573 33.8182 190.18 33.9055 189.708 33.9055C188.923 33.9055 188.373 33.6785 188.058 33.2245C187.744 32.7531 187.587 32.1855 187.587 31.522V30.8934C187.5 31.2775 187.377 31.653 187.22 32.0197C187.063 32.3689 186.853 32.6832 186.591 32.9626C186.347 33.242 186.041 33.469 185.675 33.6436C185.326 33.8182 184.906 33.9055 184.417 33.9055ZM187.587 27.8812C187.587 27.5145 187.569 27.1303 187.534 26.7287C187.5 26.3271 187.421 25.9604 187.299 25.6286C187.176 25.2794 186.984 24.9912 186.722 24.7642C186.478 24.5372 186.137 24.4237 185.701 24.4237C185.456 24.4237 185.195 24.4936 184.915 24.6333C184.653 24.7555 184.409 24.9651 184.182 25.2619C183.955 25.5588 183.763 25.9691 183.606 26.493C183.466 26.9994 183.396 27.628 183.396 28.3789C183.396 28.9027 183.431 29.4004 183.501 29.8718C183.588 30.3433 183.719 30.7537 183.894 31.1029C184.068 31.4521 184.278 31.7315 184.522 31.9411C184.784 32.1332 185.09 32.2292 185.439 32.2292C185.771 32.2292 186.068 32.1157 186.33 31.8887C186.609 31.6617 186.836 31.3648 187.011 30.9981C187.203 30.614 187.342 30.1774 187.43 29.6885C187.534 29.1996 187.587 28.6932 187.587 28.1693V27.8812Z" fill="white"/>
<path d="M193.395 33.6174V33.1983L194.181 32.9626C194.53 32.8578 194.748 32.7269 194.835 32.5697C194.94 32.3951 194.993 32.0808 194.993 31.6268V26.5977C194.993 26.2485 194.923 25.9866 194.783 25.812C194.643 25.6373 194.312 25.5151 193.788 25.4453L193.343 25.3929V24.8952C193.674 24.8079 194.032 24.6944 194.416 24.5547C194.818 24.3975 195.202 24.2229 195.569 24.0308C195.953 23.8213 196.302 23.5856 196.617 23.3236C196.948 23.0617 197.219 22.7736 197.429 22.4593H197.9C197.9 22.9657 197.909 23.4371 197.926 23.8737C197.944 24.3102 197.97 24.8166 198.005 25.3929C198.145 25.096 198.275 24.8341 198.398 24.6071C198.537 24.3801 198.747 24.1007 199.026 23.7689C199.288 23.4546 199.559 23.2625 199.838 23.1927C200.118 23.1054 200.371 23.0617 200.598 23.0617C201.034 23.0617 201.419 23.1927 201.75 23.4546C202.082 23.7165 202.248 24.1531 202.248 24.7642C202.248 25.323 202.126 25.777 201.881 26.1263C201.637 26.458 201.27 26.6239 200.781 26.6239C200.537 26.6239 200.327 26.5541 200.153 26.4144C199.995 26.2747 199.856 26.1263 199.734 25.9691C199.611 25.812 199.498 25.6635 199.393 25.5238C199.306 25.3841 199.21 25.3143 199.105 25.3143C198.86 25.3143 198.642 25.4802 198.45 25.812C198.275 26.1437 198.153 26.5541 198.083 27.043C197.996 27.4621 197.97 27.7939 198.005 28.0383V31.6792C198.005 32.0808 198.083 32.3514 198.241 32.4911C198.398 32.6308 198.712 32.7705 199.184 32.9102L200.048 33.1721V33.5912C199.664 33.5563 199.227 33.5388 198.738 33.5388C198.249 33.5214 197.787 33.5127 197.35 33.5127H196.748C196.171 33.5127 195.595 33.5214 195.019 33.5388C194.443 33.5563 193.901 33.5825 193.395 33.6174Z" fill="white"/>
<path d="M216.672 33.6174C216.341 33.5825 215.869 33.5563 215.258 33.5388C214.664 33.5214 214.062 33.5127 213.451 33.5127C212.839 33.5127 212.254 33.5214 211.696 33.5388C211.154 33.5563 210.718 33.5825 210.386 33.6174V32.9364L211.093 32.8316C211.477 32.7793 211.67 32.7007 211.67 32.5959C211.67 32.4562 211.521 32.1855 211.224 31.7839C210.945 31.3823 210.526 30.8148 209.967 30.0814C209.688 29.7322 209.408 29.4266 209.129 29.1646C208.867 28.8852 208.605 28.7456 208.343 28.7456H208.107V31.6792C208.107 32.1157 208.151 32.3951 208.238 32.5173C208.343 32.6221 208.518 32.7007 208.762 32.7531L209.496 32.9364V33.6174C209.356 33.6 209.164 33.5825 208.919 33.565C208.692 33.5476 208.43 33.5388 208.133 33.5388C207.854 33.5214 207.557 33.5127 207.243 33.5127C206.946 33.5127 206.658 33.5127 206.379 33.5127C205.82 33.5127 205.252 33.5214 204.676 33.5388C204.1 33.5563 203.672 33.5825 203.393 33.6174V32.9364L204.362 32.7793C204.676 32.7269 204.877 32.6483 204.964 32.5435C205.051 32.4213 205.095 32.1332 205.095 31.6792V19.1852C205.095 18.9756 205.078 18.8097 205.043 18.6875C205.008 18.5653 204.929 18.4692 204.807 18.3994C204.702 18.3121 204.545 18.2422 204.336 18.1898C204.126 18.1375 203.838 18.0851 203.471 18.0327V17.4041C203.698 17.3517 203.995 17.2905 204.362 17.2207C204.746 17.1509 205.139 17.0723 205.54 16.985C205.959 16.8802 206.361 16.7667 206.745 16.6445C207.129 16.5222 207.444 16.3825 207.688 16.2254H208.107V27.7764C208.282 27.7764 208.439 27.759 208.579 27.724C208.736 27.6716 208.893 27.5931 209.05 27.4883C209.207 27.3835 209.382 27.2526 209.574 27.0954C209.766 26.9208 210.011 26.7112 210.307 26.4668C210.901 25.9953 211.312 25.6635 211.539 25.4714C211.766 25.2619 211.879 25.0786 211.879 24.9214C211.879 24.5547 211.32 24.2928 210.203 24.1356V23.5332H215.782V24.1356C215.171 24.2055 214.586 24.3539 214.027 24.5809C213.486 24.7904 212.988 25.1047 212.534 25.5238L210.884 26.8073C211.25 27.2788 211.652 27.8113 212.089 28.405C212.525 28.9988 212.953 29.575 213.372 30.1338C213.809 30.6926 214.228 31.199 214.629 31.653C215.048 32.0895 215.415 32.3951 215.729 32.5697C215.817 32.6221 215.895 32.6658 215.965 32.7007C216.052 32.7181 216.131 32.7443 216.201 32.7793L216.672 32.9364V33.6174Z" fill="white"/>
<path d="M226.902 27.3573H220.406C220.371 27.532 220.345 27.6367 220.328 27.6716C220.328 27.7066 220.328 27.8113 220.328 27.986C220.328 28.5447 220.406 29.0599 220.563 29.5313C220.721 29.9853 220.939 30.387 221.218 30.7362C221.515 31.068 221.864 31.3299 222.266 31.522C222.668 31.7141 223.122 31.8101 223.628 31.8101C224.239 31.8101 224.798 31.7315 225.304 31.5744C225.828 31.3998 226.378 31.0331 226.954 30.4743L227.059 30.8672C226.85 31.2688 226.605 31.653 226.326 32.0197C226.064 32.3864 225.741 32.7094 225.357 32.9888C224.973 33.2682 224.519 33.4952 223.995 33.6698C223.488 33.8444 222.886 33.9317 222.187 33.9317C221.454 33.9317 220.782 33.8095 220.171 33.565C219.559 33.3031 219.035 32.9364 218.599 32.4649C218.18 31.9935 217.848 31.426 217.604 30.7624C217.377 30.0989 217.263 29.3567 217.263 28.536C217.263 27.7153 217.385 26.9732 217.63 26.3096C217.892 25.6286 218.25 25.0524 218.704 24.5809C219.175 24.092 219.743 23.7165 220.406 23.4546C221.07 23.1927 221.812 23.0617 222.633 23.0617C223.384 23.0617 224.021 23.1752 224.545 23.4022C225.069 23.6292 225.496 23.9435 225.828 24.3452C226.177 24.7293 226.431 25.1833 226.588 25.7072C226.762 26.231 226.867 26.7811 226.902 27.3573ZM220.537 26.3882H222.999C223.471 26.3882 223.707 26.1612 223.707 25.7072C223.707 25.2008 223.628 24.773 223.471 24.4237C223.314 24.057 222.999 23.8737 222.528 23.8737C221.533 23.8737 220.869 24.7119 220.537 26.3882Z" fill="white"/>
<path d="M228.361 33.6174V33.1983L229.147 32.9626C229.496 32.8578 229.715 32.7269 229.802 32.5697C229.907 32.3951 229.959 32.0808 229.959 31.6268V26.5977C229.959 26.2485 229.889 25.9866 229.75 25.812C229.61 25.6373 229.278 25.5151 228.754 25.4453L228.309 25.3929V24.8952C228.641 24.8079 228.999 24.6944 229.383 24.5547C229.784 24.3975 230.169 24.2229 230.535 24.0308C230.919 23.8213 231.269 23.5856 231.583 23.3236C231.915 23.0617 232.185 22.7736 232.395 22.4593H232.866C232.866 22.9657 232.875 23.4371 232.893 23.8737C232.91 24.3102 232.936 24.8166 232.971 25.3929C233.111 25.096 233.242 24.8341 233.364 24.6071C233.504 24.3801 233.713 24.1007 233.993 23.7689C234.255 23.4546 234.525 23.2625 234.805 23.1927C235.084 23.1054 235.337 23.0617 235.564 23.0617C236.001 23.0617 236.385 23.1927 236.717 23.4546C237.049 23.7165 237.214 24.1531 237.214 24.7642C237.214 25.323 237.092 25.777 236.848 26.1263C236.603 26.458 236.237 26.6239 235.748 26.6239C235.503 26.6239 235.294 26.5541 235.119 26.4144C234.962 26.2747 234.822 26.1263 234.7 25.9691C234.578 25.812 234.464 25.6635 234.359 25.5238C234.272 25.3841 234.176 25.3143 234.071 25.3143C233.827 25.3143 233.609 25.4802 233.417 25.812C233.242 26.1437 233.12 26.5541 233.05 27.043C232.963 27.4621 232.936 27.7939 232.971 28.0383V31.6792C232.971 32.0808 233.05 32.3514 233.207 32.4911C233.364 32.6308 233.678 32.7705 234.15 32.9102L235.014 33.1721V33.5912C234.63 33.5563 234.194 33.5388 233.705 33.5388C233.216 33.5214 232.753 33.5127 232.316 33.5127H231.714C231.138 33.5127 230.562 33.5214 229.985 33.5388C229.409 33.5563 228.868 33.5825 228.361 33.6174Z" fill="white"/>
</g>
<g id="Logomark">
<path id="Vector" d="M30.3459 13.4752C22.0894 13.4752 17.7406 19.8408 17.7406 26.0805C17.7406 32.3201 22.0894 38.6858 30.3459 38.6858C35.325 38.6858 39.2957 35.1563 42.9512 30.9965C46.6068 35.1563 50.4514 38.6858 55.5565 38.6858C63.813 38.6858 68.1618 32.3201 68.1618 26.0805C68.1618 19.8408 63.813 13.4752 55.5565 13.4752C50.4514 13.4752 46.6068 17.0046 42.9512 21.1644C39.2957 17.0046 35.325 13.4752 30.3459 13.4752ZM30.3459 19.7778C32.993 19.7778 35.8922 22.7401 38.7915 26.0805C35.8922 29.4209 32.993 32.3831 30.3459 32.3831C25.6819 32.3831 24.0433 28.9797 24.0433 26.0805C24.0433 23.1812 25.6819 19.7778 30.3459 19.7778ZM55.5565 19.7778C60.2205 19.7778 61.8592 23.1812 61.8592 26.0805C61.8592 28.9797 60.2205 32.3831 55.5565 32.3831C52.8464 32.3831 49.9472 29.4209 47.111 26.0805C50.0102 22.7401 52.8464 19.7778 55.5565 19.7778Z" fill="white"/>
<g id="Group 5">
<path id="Ellipse 2" d="M33.5873 25.7203C33.5873 25.7203 32.2973 27.8812 30.706 27.8812C29.1148 27.8812 27.8248 26.9137 27.8248 25.7203C27.8248 24.5269 29.1148 23.5594 30.706 23.5594C32.2973 23.5594 33.5873 25.7203 33.5873 25.7203Z" fill="white"/>
<path id="Ellipse 3" d="M52.3152 25.7203C52.3152 25.7203 53.6052 23.5594 55.1964 23.5594C56.7877 23.5594 58.0776 24.5268 58.0776 25.7203C58.0776 26.9137 56.7877 27.8812 55.1964 27.8812C53.6052 27.8812 52.3152 25.7203 52.3152 25.7203Z" fill="white"/>
</g>
</g>
</g>
</g>
</svg>
