<svg width="277" height="36" viewBox="0 0 277 36" fill="none" xmlns="http://www.w3.org/2000/svg">
<path d="M0.681576 35.0815L0.681576 1.17229H7.3181L7.3181 35.0815H0.681576ZM14.6843 35.0815L14.6843 1.17229H21.6115L38.1785 23.9399V1.17229H44.7666V35.0815H38.1785L21.3208 11.8779L21.3208 35.0815H14.6843ZM59.3204 35.0815V7.22751H49.1476V1.17229L76.0812 1.17229V7.22751L65.9569 7.22751V35.0815H59.3204ZM80.4402 35.0815V1.17229L101.9 1.17229V7.22751H87.0767V14.9298H99.8654V20.8397H87.0767V29.0263H102.094V35.0815H80.4402ZM108.966 35.0815V1.17229H121.561C123.951 1.17229 126.066 1.64056 127.907 2.57711C129.748 3.51365 131.185 4.80543 132.218 6.45245C133.251 8.06717 133.768 9.9564 133.768 12.1201C133.768 14.2516 133.219 16.157 132.121 17.8363C131.055 19.4833 129.586 20.7751 127.713 21.7116C125.84 22.6159 123.708 23.068 121.319 23.068L115.603 23.068V35.0815H108.966ZM127.616 35.0815L119.769 21.4694L124.855 17.8363L135.125 35.0815H127.616ZM115.603 17.0128L121.609 17.0128C122.61 17.0128 123.499 16.8028 124.274 16.383C125.081 15.9632 125.711 15.3819 126.163 14.6391C126.647 13.8963 126.889 13.0567 126.889 12.1201C126.889 10.6669 126.357 9.48813 125.291 8.58388C124.257 7.67964 122.917 7.22751 121.27 7.22751L115.603 7.22751V17.0128ZM140.188 35.0815V1.17229H146.825V35.0815L140.188 35.0815ZM169.692 35.6628C166.269 35.6628 163.233 34.9201 160.585 33.4345C157.969 31.9167 155.919 29.8498 154.433 27.234C152.948 24.5858 152.205 21.5663 152.205 18.1754C152.205 14.7198 152.948 11.6842 154.433 9.0683C155.919 6.42015 157.953 4.3533 160.537 2.86776C163.153 1.38221 166.156 0.639433 169.547 0.639433C172.97 0.639433 175.974 1.39835 178.557 2.9162C181.173 4.40174 183.224 6.46859 184.709 9.11675C186.195 11.7326 186.938 14.7521 186.938 18.1754C186.938 21.5663 186.195 24.5858 184.709 27.234C183.256 29.8498 181.221 31.9167 178.606 33.4345C176.022 34.9201 173.051 35.6628 169.692 35.6628ZM169.692 29.6076C171.759 29.6076 173.568 29.1232 175.118 28.1544C176.7 27.1532 177.927 25.7969 178.799 24.0853C179.704 22.3736 180.156 20.4037 180.156 18.1754C180.156 15.9147 179.704 13.9286 178.799 12.217C177.895 10.5054 176.652 9.16519 175.069 8.19635C173.487 7.19522 171.646 6.69466 169.547 6.69466C167.512 6.69466 165.688 7.19522 164.073 8.19635C162.491 9.16519 161.247 10.5054 160.343 12.217C159.439 13.9286 158.987 15.9147 158.987 18.1754C158.987 20.4037 159.439 22.3736 160.343 24.0853C161.247 25.7969 162.507 27.1532 164.122 28.1544C165.736 29.1232 167.593 29.6076 169.692 29.6076ZM192.32 35.0815V1.17229L204.915 1.17229C207.305 1.17229 209.42 1.64056 211.261 2.57711C213.101 3.51365 214.539 4.80543 215.572 6.45245C216.605 8.06717 217.122 9.9564 217.122 12.1201C217.122 14.2516 216.573 16.157 215.475 17.8363C214.409 19.4833 212.94 20.7751 211.067 21.7116C209.194 22.6159 207.062 23.068 204.673 23.068H198.956V35.0815H192.32ZM210.97 35.0815L203.122 21.4694L208.209 17.8363L218.478 35.0815H210.97ZM198.956 17.0128H204.963C205.964 17.0128 206.852 16.8028 207.628 16.383C208.435 15.9632 209.065 15.3819 209.517 14.6391C210.001 13.8963 210.243 13.0567 210.243 12.1201C210.243 10.6669 209.711 9.48813 208.645 8.58388C207.611 7.67964 206.271 7.22751 204.624 7.22751H198.956V17.0128Z" fill="white"/>
<path d="M258.579 35.0815L245.597 1.17229L252.233 1.17229L265.603 35.0815H258.579ZM231.791 35.0815L245.161 1.17229L251.797 1.17229L238.815 35.0815H231.791ZM238.088 27.6215V21.7601H259.354V27.6215L238.088 27.6215ZM269.666 35.0815V1.17229L276.302 1.17229V35.0815H269.666Z" fill="#FFAF76"/>
</svg>
