<svg width="286" height="41" viewBox="0 0 286 41" fill="none" xmlns="http://www.w3.org/2000/svg">
<path d="M71.702 32.2452C70.18 32.2452 68.7465 31.9481 67.4017 31.3538C66.0673 30.7492 64.8424 29.8631 63.7269 28.6955C63.2473 28.2055 62.8095 27.6477 62.4133 27.0222C62.0172 26.3863 61.6784 25.6826 61.3969 24.9112C61.1154 24.1397 60.8965 23.2953 60.7401 22.3779C60.5837 21.4501 60.5056 20.4441 60.5056 19.3599C60.5056 18.5884 60.6463 17.8013 60.9278 16.9986C61.2197 16.1854 61.6158 15.4088 62.1162 14.6686C62.6166 13.918 63.2056 13.2247 63.8833 12.5888C64.5609 11.9425 65.2906 11.3899 66.0725 10.9312C67.1359 10.2849 68.194 9.84182 69.2469 9.60204C70.3103 9.35184 71.2902 9.22674 72.1868 9.22674C72.6351 9.22674 73.1042 9.26323 73.5942 9.3362C74.0841 9.40918 74.548 9.503 74.9859 9.61768C75.4342 9.73235 75.8407 9.85745 76.2056 9.99298C76.5809 10.1285 76.8728 10.2588 77.0813 10.3839C77.5817 10.6862 78.0926 11.0615 78.6138 11.5098C79.1351 11.9581 79.625 12.4429 80.0837 12.9641C80.5424 13.4854 80.9542 14.0222 81.3191 14.5748C81.6944 15.1169 81.9863 15.6329 82.1948 16.1229C82.5492 16.936 82.789 17.7492 82.9141 18.5623C83.0392 19.3755 83.1018 20.2199 83.1018 21.0956C83.1018 22.0339 83.0027 22.9148 82.8047 23.7384C82.617 24.5515 82.3407 25.3177 81.9759 26.0371C81.611 26.7564 81.1627 27.434 80.631 28.07C80.1098 28.6955 79.5156 29.2949 78.8484 29.8683C78.3584 30.2748 77.858 30.6293 77.3472 30.9316C76.8363 31.2235 76.289 31.4685 75.7052 31.6666C75.1318 31.8647 74.5168 32.0106 73.86 32.1044C73.2032 32.1983 72.4839 32.2452 71.702 32.2452ZM64.5869 20.9705C64.5869 21.4709 64.613 21.9817 64.6651 22.503C64.7173 23.0138 64.8007 23.5246 64.9153 24.0355C65.03 24.5359 65.176 25.0206 65.3532 25.4898C65.5408 25.9589 65.765 26.3967 66.0256 26.8033C66.3592 27.3558 66.7293 27.8979 67.1359 28.4296C67.5529 28.9509 68.0116 29.4252 68.512 29.8526C69.0228 30.2696 69.5805 30.6084 70.1852 30.8691C70.8003 31.1193 71.4675 31.2444 72.1868 31.2444C72.8644 31.2444 73.5212 31.0828 74.1571 30.7596C74.793 30.426 75.382 29.9934 75.9241 29.4617C76.4663 28.9196 76.951 28.3097 77.3784 27.6321C77.8163 26.9545 78.1707 26.2664 78.4418 25.5679C78.4731 25.4637 78.5356 25.276 78.6294 25.005C78.7337 24.7235 78.8379 24.3847 78.9422 23.9886C79.0464 23.5924 79.1351 23.1441 79.208 22.6437C79.2914 22.1433 79.3331 21.6117 79.3331 21.0487C79.3331 20.5483 79.2914 20.0062 79.208 19.4224C79.1351 18.8386 79.0152 18.2392 78.8484 17.6241C78.692 16.9986 78.4939 16.3731 78.2541 15.7476C78.0144 15.1221 77.7329 14.5226 77.4097 13.9493C77.1282 13.4593 76.7999 12.9797 76.4246 12.5106C76.0492 12.0311 75.6218 11.6089 75.1423 11.244C74.6731 10.8687 74.1519 10.5716 73.5785 10.3526C73.0051 10.1233 72.3796 10.0086 71.702 10.0086C71.0557 10.0086 70.4406 10.1441 69.8568 10.4152C69.273 10.6862 68.7413 11.0251 68.2618 11.4316C67.7822 11.8278 67.36 12.2552 66.9951 12.7139C66.6407 13.1622 66.354 13.574 66.1351 13.9493C65.9683 14.2412 65.791 14.606 65.6034 15.0439C65.4262 15.4817 65.2594 15.9926 65.103 16.5764C64.957 17.1602 64.8319 17.8222 64.7277 18.5623C64.6339 19.2921 64.5869 20.0948 64.5869 20.9705Z" fill="white"/>
<path d="M100.882 31.8699C100.861 31.8699 100.819 31.8699 100.757 31.8699C100.694 31.8803 100.621 31.8855 100.538 31.8855C100.465 31.8959 100.397 31.9011 100.334 31.9011C100.272 31.9116 100.23 31.9168 100.209 31.9168C100.095 31.9168 100.001 31.8803 99.9277 31.8073C99.8652 31.7239 99.8339 31.6249 99.8339 31.5102C99.8339 31.333 99.8913 31.2183 100.006 31.1662C100.131 31.1141 100.298 31.088 100.506 31.088C100.652 31.088 100.814 31.0984 100.991 31.1193C101.168 31.1297 101.33 31.1349 101.476 31.1349C101.653 31.1349 101.804 31.1141 101.929 31.0724C102.065 31.0307 102.138 30.9264 102.148 30.7596V19.7195C102.138 19.5944 102.112 19.5319 102.07 19.5319C102.008 19.5319 101.882 19.7404 101.695 20.1574C101.622 20.3137 101.533 20.491 101.429 20.689C101.325 20.8871 101.22 21.0852 101.116 21.2833C101.022 21.4813 100.929 21.6742 100.835 21.8619C100.741 22.0391 100.668 22.1902 100.616 22.3153C100.032 23.5559 99.4795 24.7809 98.9582 25.9902C98.437 27.189 97.8532 28.3879 97.2068 29.5868C97.1755 29.6389 97.1182 29.7432 97.0348 29.8995C96.9618 30.0455 96.8836 30.2071 96.8002 30.3843C96.7168 30.5615 96.6282 30.744 96.5344 30.9316C96.451 31.1088 96.3832 31.26 96.3311 31.3851C96.2686 31.4998 96.2164 31.5728 96.1747 31.604C96.133 31.6353 96.0861 31.6509 96.034 31.6509C95.9402 31.6509 95.8359 31.5623 95.7213 31.3851C95.6691 31.3226 95.6066 31.2339 95.5336 31.1193C95.4711 31.0046 95.3668 30.8117 95.2209 30.5407C95.0853 30.2696 94.8977 29.8995 94.6579 29.4304C94.4181 28.9509 94.1054 28.3202 93.7196 27.5383C93.3339 26.746 92.8544 25.7712 92.281 24.6141C91.718 23.4569 91.0404 22.0704 90.2481 20.4545C90.1022 20.2147 89.9771 19.9801 89.8728 19.7508C89.7686 19.511 89.607 19.3025 89.3881 19.1253C89.2942 19.9072 89.2317 20.6682 89.2004 21.4084C89.1691 22.1381 89.1326 22.8835 89.0909 23.6445C89.0388 24.5307 88.9867 25.422 88.9346 26.3185C88.8929 27.2047 88.872 28.0908 88.872 28.9769C88.872 29.1437 88.8772 29.321 88.8877 29.5086C88.8981 29.6963 88.9294 29.8735 88.9815 30.0403C89.0336 30.2071 89.1066 30.3582 89.2004 30.4938C89.3047 30.6189 89.4454 30.7075 89.6226 30.7596L91.4209 31.1349C91.4731 31.1558 91.5043 31.2027 91.5148 31.2756C91.5252 31.3382 91.5304 31.3903 91.5304 31.432C91.5304 31.6614 91.4261 31.7865 91.2176 31.8073H90.4358C90.0188 31.8073 89.6174 31.7969 89.2317 31.776C88.846 31.7448 88.455 31.7291 88.0589 31.7291C87.6314 31.7291 87.2092 31.7448 86.7922 31.776C86.3857 31.7969 85.9687 31.8073 85.5412 31.8073H85.1346C85.0825 31.7865 85.0565 31.7343 85.0565 31.6509C85.0565 31.4633 85.1503 31.3121 85.3379 31.1975C85.5256 31.0828 85.7445 30.9837 85.9947 30.9003C86.2553 30.8065 86.5108 30.7179 86.761 30.6345C87.0112 30.5407 87.1988 30.4208 87.3239 30.2748C87.4386 30.1289 87.5324 29.8735 87.6054 29.5086C87.6888 29.1437 87.7513 28.7372 87.793 28.2889C87.8139 28.0387 87.8399 27.7259 87.8712 27.3506C87.9025 26.9753 87.939 26.501 87.9807 25.9276C88.0328 25.3542 88.0901 24.6714 88.1527 23.8791C88.2152 23.0868 88.2934 22.1485 88.3873 21.0643C88.429 20.762 88.4863 20.345 88.5593 19.8133C88.6427 19.2712 88.6844 18.6457 88.6844 17.9368C88.6844 17.7179 88.5697 17.5563 88.3403 17.4521C88.1214 17.3374 87.8712 17.2488 87.5897 17.1862C87.3187 17.1133 87.0685 17.0403 86.8391 16.9673C86.6202 16.8839 86.5108 16.764 86.5108 16.6076C86.5108 16.5034 86.5472 16.42 86.6202 16.3574C86.7036 16.2949 86.7974 16.2532 86.9017 16.2323C87.0164 16.2011 87.131 16.1854 87.2457 16.1854C87.3604 16.175 87.4594 16.1698 87.5428 16.1698C87.5741 16.1698 87.6523 16.1802 87.7774 16.2011C87.9129 16.2219 88.0537 16.2428 88.1996 16.2636C88.356 16.2845 88.4967 16.3053 88.6218 16.3262C88.7573 16.347 88.8407 16.3574 88.872 16.3574H90.8267C91.0352 16.4096 91.1916 16.493 91.2958 16.6076C91.4105 16.7119 91.5043 16.8474 91.5773 17.0142C91.619 17.1185 91.6659 17.2331 91.718 17.3582C91.7806 17.4729 91.8484 17.6137 91.9213 17.7805C92.0047 17.9368 92.0986 18.1297 92.2028 18.3591C92.3175 18.5884 92.453 18.8595 92.6094 19.1722C92.8596 19.6935 93.115 20.2356 93.3756 20.7985C93.6362 21.3615 93.8969 21.9244 94.1575 22.4874C94.4181 23.0503 94.6735 23.6133 94.9237 24.1762C95.1739 24.7287 95.4189 25.2604 95.6587 25.7712C95.6796 25.8234 95.7265 25.9432 95.7994 26.1309C95.8724 26.3185 95.961 26.527 96.0653 26.7564C96.1695 26.9753 96.2738 27.1943 96.378 27.4132C96.4927 27.6217 96.597 27.778 96.6908 27.8823C96.7638 27.9761 96.8367 28.023 96.9097 28.023C96.9723 28.023 97.0452 27.9605 97.1286 27.8354C97.3059 27.4497 97.5091 27.0066 97.7385 26.5062C97.9783 25.9954 98.2285 25.4585 98.4891 24.8955C98.7497 24.3222 99.0156 23.7384 99.2866 23.1441C99.5681 22.5499 99.8391 21.9713 100.1 21.4084C100.371 20.835 100.626 20.2929 100.866 19.7821C101.116 19.2712 101.34 18.8178 101.538 18.4216C101.58 18.3382 101.627 18.1923 101.679 17.9838C101.742 17.7648 101.809 17.5459 101.882 17.327C101.966 17.0976 102.054 16.8995 102.148 16.7327C102.242 16.5555 102.341 16.4669 102.445 16.4669H105.807C105.88 16.4669 105.964 16.4513 106.058 16.42C106.162 16.3783 106.24 16.3574 106.292 16.3574C106.417 16.3574 106.563 16.3731 106.73 16.4044C106.897 16.4252 107.006 16.5086 107.058 16.6546C107.09 16.7588 107.058 16.837 106.965 16.8891C106.871 16.9308 106.746 16.9673 106.589 16.9986C106.433 17.0194 106.256 17.0455 106.058 17.0768C105.87 17.108 105.688 17.1602 105.51 17.2331C105.344 17.3061 105.203 17.4156 105.088 17.5615C104.973 17.7075 104.916 17.9056 104.916 18.1558V30.8378C104.916 30.9525 104.942 31.0254 104.994 31.0567C105.119 31.088 105.276 31.1141 105.463 31.1349C105.651 31.1558 105.844 31.1818 106.042 31.2131C106.24 31.2339 106.438 31.2652 106.636 31.3069C106.834 31.3382 107.006 31.3799 107.152 31.432C107.204 31.4737 107.251 31.5258 107.293 31.5884C107.335 31.6405 107.356 31.6874 107.356 31.7291C107.356 31.7917 107.33 31.8438 107.277 31.8855C107.225 31.9272 107.163 31.9585 107.09 31.9793C107.027 32.0106 106.954 32.0315 106.871 32.0419C106.798 32.0523 106.74 32.0575 106.699 32.0575C106.011 32.0575 105.323 32.0262 104.635 31.9637C103.957 31.9011 103.274 31.8699 102.586 31.8699H100.882Z" fill="white"/>
<path d="M114.908 24.0198L117.583 23.9104C118 23.8791 118.317 23.7801 118.536 23.6133C118.755 23.436 118.917 23.2275 119.021 22.9878C119.136 22.7376 119.219 22.4665 119.271 22.1746C119.334 21.8827 119.423 21.596 119.537 21.3145C119.568 21.1894 119.621 21.1269 119.694 21.1269C119.84 21.1269 119.912 21.1634 119.912 21.2364V21.8619C119.912 22.2789 119.892 22.7323 119.85 23.2223C119.819 23.7019 119.803 24.1137 119.803 24.4577C119.803 24.7913 119.829 25.1457 119.881 25.521C119.944 25.8963 119.975 26.2821 119.975 26.6782C119.975 26.7303 119.97 26.8137 119.959 26.9284C119.949 27.0431 119.933 27.163 119.912 27.2881C119.892 27.4132 119.86 27.5226 119.819 27.6165C119.787 27.7103 119.74 27.7572 119.678 27.7572C119.563 27.7572 119.49 27.7051 119.459 27.6008C119.438 27.4861 119.417 27.3819 119.396 27.2881C119.376 27.163 119.339 27.0118 119.287 26.8346C119.235 26.6574 119.178 26.4801 119.115 26.3029C119.052 26.1153 118.995 25.9485 118.943 25.8025C118.891 25.6566 118.854 25.5575 118.834 25.5054C118.74 25.3177 118.557 25.1718 118.286 25.0675C118.015 24.9529 117.708 24.8695 117.364 24.8173C117.03 24.7548 116.681 24.7183 116.316 24.7079C115.961 24.687 115.649 24.6766 115.378 24.6766H114.908C114.742 24.6766 114.637 24.7131 114.596 24.7861C114.554 24.8486 114.533 24.9529 114.533 25.0988V30.5876C114.533 30.9003 114.632 31.0984 114.83 31.1818H119.584C119.793 31.1818 120.006 31.1818 120.225 31.1818C120.455 31.1714 120.606 31.1453 120.679 31.1036C120.835 31.0619 120.965 30.9733 121.07 30.8378C121.184 30.6918 121.278 30.5563 121.351 30.4312C121.382 30.3791 121.44 30.2696 121.523 30.1028C121.617 29.936 121.711 29.7588 121.805 29.5712C121.909 29.3731 122.003 29.1906 122.086 29.0238C122.18 28.857 122.248 28.7476 122.289 28.6955C122.352 28.5704 122.456 28.5078 122.602 28.5078C122.696 28.5078 122.764 28.5443 122.805 28.6173V30.9473C122.805 31.0411 122.795 31.1297 122.774 31.2131C122.764 31.2861 122.748 31.3799 122.727 31.4946C122.686 31.6405 122.633 31.7396 122.571 31.7917C122.508 31.8334 122.388 31.8751 122.211 31.9168C121.158 31.9168 120.157 31.9116 119.209 31.9011C118.271 31.8907 117.317 31.8803 116.347 31.8699C115.378 31.8699 114.356 31.8647 113.282 31.8542C112.208 31.8438 111.01 31.8386 109.686 31.8386C109.508 31.8386 109.42 31.75 109.42 31.5728C109.42 31.4581 109.477 31.3695 109.592 31.3069C109.706 31.2444 109.811 31.2027 109.904 31.1818C109.967 31.1818 110.066 31.1766 110.202 31.1662C110.348 31.1558 110.504 31.1505 110.671 31.1505C110.838 31.1401 110.999 31.1297 111.155 31.1193C111.312 31.1088 111.447 31.1036 111.562 31.1036C111.812 31.1036 111.937 30.9056 111.937 30.5094V18.9689C111.937 18.7917 111.917 18.5728 111.875 18.3121C111.844 18.0515 111.776 17.8326 111.672 17.6554C111.599 17.6032 111.562 17.5772 111.562 17.5772L109.373 17.3582C109.175 17.3582 109.076 17.2592 109.076 17.0611C109.076 17.009 109.086 16.9465 109.107 16.8735C109.128 16.7901 109.196 16.7484 109.31 16.7484H111.875C112.876 16.7484 113.861 16.7432 114.83 16.7327C115.8 16.7223 116.691 16.7171 117.504 16.7171H119.725C119.892 16.7171 120.064 16.7223 120.241 16.7327C120.429 16.7327 120.606 16.738 120.773 16.7484C120.939 16.7484 121.091 16.7536 121.226 16.764C121.362 16.764 121.466 16.764 121.539 16.764C121.612 16.7744 121.669 16.8109 121.711 16.8735C121.753 16.936 121.779 17.0142 121.789 17.108C121.81 17.1914 121.82 17.2801 121.82 17.3739C121.831 17.4573 121.836 17.5251 121.836 17.5772V20.1261C121.836 20.2199 121.799 20.2668 121.726 20.2668C121.612 20.2668 121.523 20.1939 121.461 20.0479C121.408 19.8915 121.325 19.7091 121.21 19.5006C121.117 19.2712 121.002 19.0419 120.866 18.8125C120.731 18.5832 120.632 18.406 120.569 18.2809C120.475 18.1036 120.329 17.9681 120.131 17.8743C119.944 17.77 119.73 17.6919 119.49 17.6397C119.251 17.5772 119.006 17.5303 118.755 17.499C118.505 17.4677 118.286 17.4312 118.099 17.3895C118.036 17.3895 117.874 17.3843 117.614 17.3739C117.353 17.3635 117.056 17.3582 116.722 17.3582C116.399 17.3478 116.076 17.3374 115.753 17.327C115.44 17.3166 115.195 17.3113 115.018 17.3113C114.799 17.3113 114.664 17.3739 114.611 17.499C114.559 17.6241 114.533 17.8117 114.533 18.0619V23.6445C114.533 23.7384 114.564 23.827 114.627 23.9104C114.7 23.9833 114.794 24.0198 114.908 24.0198Z" fill="white"/>
<path d="M124.963 24.2388C124.963 23.6654 125.031 23.1076 125.167 22.5655C125.313 22.013 125.506 21.497 125.745 21.0174C125.995 20.5275 126.287 20.0792 126.621 19.6726C126.955 19.266 127.314 18.9116 127.7 18.6093C128.054 18.3382 128.456 18.088 128.904 17.8587C129.352 17.6189 129.832 17.4104 130.343 17.2331C130.864 17.0559 131.411 16.9152 131.985 16.8109C132.558 16.7067 133.142 16.6546 133.736 16.6546C134.445 16.6546 135.107 16.7171 135.722 16.8422C136.348 16.9673 136.983 17.1862 137.63 17.499C137.744 17.572 137.854 17.6084 137.958 17.6084C138.052 17.5772 138.141 17.5042 138.224 17.3895L138.49 17.1706C138.563 17.1185 138.625 17.0924 138.678 17.0924C138.928 17.0924 139.053 17.2488 139.053 17.5615V18.9064C139.053 19.0523 139.079 19.2087 139.131 19.3755C139.194 19.5319 139.235 19.6987 139.256 19.8759C139.267 19.9176 139.272 20.0114 139.272 20.1574V21.0487C139.272 21.1113 139.23 21.1582 139.147 21.1894C139.063 21.2207 139.001 21.2364 138.959 21.2364C138.73 21.2364 138.599 21.1634 138.568 21.0174C138.37 20.4962 138.13 20.0114 137.849 19.5631C137.567 19.1149 137.239 18.7239 136.864 18.3903C136.488 18.0567 136.056 17.7961 135.566 17.6084C135.086 17.4104 134.544 17.3113 133.939 17.3113C133.189 17.3113 132.542 17.4156 132 17.6241C131.469 17.8222 130.953 18.1349 130.452 18.5623C130.285 18.6874 130.134 18.8125 129.999 18.9376C129.874 19.0523 129.754 19.1826 129.639 19.3286C129.524 19.4745 129.41 19.6361 129.295 19.8133C129.191 19.9906 129.081 20.2043 128.967 20.4545C128.685 20.9966 128.471 21.5804 128.325 22.2059C128.18 22.821 128.107 23.3995 128.107 23.9416C128.107 24.3378 128.112 24.6975 128.122 25.0206C128.143 25.3438 128.185 25.667 128.247 25.9902C128.31 26.3029 128.409 26.6313 128.544 26.9753C128.68 27.3089 128.868 27.6947 129.107 28.1325C129.576 29.0603 130.202 29.7953 130.984 30.3374C131.766 30.8691 132.647 31.1349 133.627 31.1349C133.939 31.1349 134.216 31.1245 134.455 31.1036C134.695 31.0724 134.914 31.0202 135.112 30.9473C135.31 30.8743 135.498 30.77 135.675 30.6345C135.863 30.4886 136.061 30.2957 136.269 30.0559C136.29 30.0351 136.321 29.9829 136.363 29.8995C136.415 29.8161 136.441 29.7484 136.441 29.6963L136.598 25.9745C136.598 25.8494 136.546 25.7347 136.441 25.6305C136.337 25.5158 136.228 25.4324 136.113 25.3803C136.019 25.349 135.852 25.3073 135.613 25.2552C135.383 25.2031 135.149 25.1509 134.909 25.0988C134.68 25.0363 134.481 24.9789 134.315 24.9268C134.148 24.8643 134.091 24.8069 134.143 24.7548C134.143 24.6401 134.179 24.5828 134.252 24.5828H140.601C140.862 24.5828 141.018 24.6297 141.07 24.7235C141.133 24.8173 141.164 24.8903 141.164 24.9424C141.164 25.0363 141.107 25.104 140.992 25.1457C140.888 25.1874 140.752 25.2239 140.585 25.2552C140.429 25.276 140.257 25.2969 140.069 25.3177C139.892 25.3282 139.736 25.349 139.6 25.3803C139.298 25.4324 139.147 25.5575 139.147 25.7556V29.6806C139.147 29.7536 139.209 29.7901 139.334 29.7901C139.449 29.7901 139.564 29.764 139.678 29.7119C139.803 29.6493 139.949 29.6181 140.116 29.6181H140.304C140.387 29.6181 140.45 29.6389 140.491 29.6806C140.606 29.764 140.663 29.8318 140.663 29.8839C140.663 29.9882 140.606 30.0663 140.491 30.1185C140.387 30.1706 140.288 30.2227 140.194 30.2748C139.517 30.525 138.86 30.7492 138.224 30.9473C137.599 31.1349 136.978 31.2965 136.363 31.432C135.759 31.5675 135.154 31.6718 134.549 31.7448C133.945 31.8073 133.329 31.8386 132.704 31.8386C132.318 31.8386 131.917 31.8073 131.5 31.7448C131.093 31.6718 130.692 31.578 130.296 31.4633C129.9 31.3486 129.519 31.2131 129.154 31.0567C128.8 30.9003 128.477 30.7283 128.185 30.5407C127.789 30.2696 127.398 29.9048 127.012 29.4461C126.637 28.9874 126.293 28.4765 125.98 27.9136C125.678 27.3506 125.433 26.7564 125.245 26.1309C125.057 25.495 124.963 24.8643 124.963 24.2388Z" fill="white"/>
<path d="M141.696 31.4007C141.696 31.359 141.727 31.2965 141.789 31.2131C141.842 31.1297 141.925 31.088 142.04 31.088C142.206 31.088 142.384 31.0619 142.571 31.0098C142.769 30.9577 142.957 30.8795 143.134 30.7752C143.322 30.6606 143.494 30.5198 143.65 30.353C143.817 30.1758 143.958 29.9673 144.072 29.7275L148.216 19.9072C148.227 19.8863 148.248 19.8394 148.279 19.7664C148.321 19.683 148.342 19.6153 148.342 19.5631C148.342 19.4485 148.315 19.3338 148.263 19.2191C148.211 19.1044 148.149 19.0002 148.076 18.9064C148.013 18.8021 147.956 18.7135 147.904 18.6405C147.852 18.5571 147.825 18.4842 147.825 18.4216C147.825 18.3174 147.862 18.234 147.935 18.1714C148.008 18.1089 148.091 18.0619 148.185 18.0307C148.289 17.989 148.399 17.9629 148.514 17.9525C148.628 17.9421 148.727 17.9264 148.811 17.9056C148.904 17.8639 149.009 17.7961 149.123 17.7023C149.238 17.598 149.332 17.5146 149.405 17.4521C149.436 17.4 149.462 17.3322 149.483 17.2488C149.504 17.1654 149.525 17.0872 149.546 17.0142C149.577 16.9412 149.613 16.8787 149.655 16.8266C149.707 16.7744 149.775 16.7484 149.858 16.7484C150.067 16.7484 150.192 16.837 150.234 17.0142L154.706 30.3999C154.769 30.598 154.836 30.7544 154.909 30.8691C154.993 30.9733 155.092 31.0515 155.206 31.1036C155.321 31.1558 155.446 31.187 155.582 31.1975C155.728 31.2079 155.894 31.2131 156.082 31.2131H156.645C156.739 31.2131 156.812 31.2235 156.864 31.2444C156.916 31.2444 156.973 31.2809 157.036 31.3538C157.109 31.4268 157.145 31.4894 157.145 31.5415C157.145 31.7083 157.052 31.7969 156.864 31.8073C156.843 31.8282 156.77 31.8386 156.645 31.8386H155.754C155.451 31.8386 155.102 31.823 154.706 31.7917C154.31 31.75 153.914 31.7291 153.518 31.7291C152.871 31.7291 152.246 31.75 151.641 31.7917C151.036 31.823 150.499 31.8386 150.03 31.8386C149.978 31.8386 149.921 31.8282 149.858 31.8073C149.806 31.7865 149.78 31.7448 149.78 31.6822C149.78 31.6197 149.806 31.5571 149.858 31.4946C149.91 31.432 149.973 31.3747 150.046 31.3226C150.119 31.26 150.197 31.2131 150.281 31.1818C150.374 31.1505 150.458 31.1349 150.531 31.1349C150.635 31.1349 150.739 31.1401 150.844 31.1505C150.948 31.161 151.062 31.1662 151.188 31.1662C151.521 31.1662 151.792 31.1297 152.001 31.0567C152.178 30.9942 152.267 30.8691 152.267 30.6814C152.267 30.6606 152.261 30.6345 152.251 30.6032C152.24 30.572 152.23 30.525 152.22 30.4625C152.178 30.3687 152.11 30.1967 152.016 29.9465C151.923 29.6858 151.823 29.4044 151.719 29.102C151.615 28.7997 151.511 28.5078 151.406 28.2263C151.313 27.9449 151.24 27.7259 151.188 27.5695C151.146 27.4757 151.099 27.3871 151.047 27.3037C151.005 27.2099 150.927 27.163 150.812 27.163H146.418C146.157 27.163 145.991 27.2881 145.918 27.5383L145.292 29.8057C145.271 29.8787 145.256 29.9412 145.245 29.9934C145.235 30.0455 145.23 30.1185 145.23 30.2123C145.23 30.3791 145.24 30.5146 145.261 30.6189C145.292 30.7127 145.334 30.7909 145.386 30.8534C145.449 30.916 145.527 30.9629 145.621 30.9942C145.725 31.015 145.855 31.0359 146.012 31.0567C146.064 31.0567 146.147 31.0671 146.262 31.088C146.387 31.0984 146.517 31.1141 146.653 31.1349C146.788 31.1558 146.913 31.1766 147.028 31.1975C147.153 31.2079 147.242 31.2131 147.294 31.2131C147.346 31.2339 147.419 31.2861 147.513 31.3695C147.617 31.4424 147.669 31.5258 147.669 31.6197C147.669 31.6718 147.648 31.7239 147.607 31.776C147.565 31.8177 147.487 31.8386 147.372 31.8386H146.887C146.72 31.8386 146.491 31.8334 146.199 31.823C145.918 31.8125 145.631 31.8073 145.339 31.8073C145.058 31.8073 144.719 31.8125 144.323 31.823C143.927 31.8334 143.52 31.8386 143.103 31.8386C143.051 31.8386 142.947 31.8334 142.79 31.823C142.634 31.8021 142.472 31.776 142.305 31.7448C142.149 31.7031 142.008 31.6562 141.883 31.604C141.758 31.5415 141.696 31.4737 141.696 31.4007ZM146.528 25.7712C146.517 25.7921 146.512 25.8494 146.512 25.9432V26.0214C146.512 26.1361 146.543 26.2351 146.606 26.3185C146.679 26.3915 146.773 26.428 146.887 26.428C147.523 26.428 148.123 26.4541 148.686 26.5062C149.259 26.5479 149.811 26.5687 150.343 26.5687C150.458 26.5687 150.546 26.5375 150.609 26.4749C150.672 26.4019 150.703 26.3342 150.703 26.2716V26.0996C150.703 26.0788 150.698 26.0579 150.687 26.0371C150.666 26.0058 150.651 25.9537 150.64 25.8807L148.967 21.1269C148.884 20.908 148.785 20.7985 148.67 20.7985C148.618 20.7985 148.56 20.8194 148.498 20.8611C148.435 20.9028 148.394 20.9445 148.373 20.9862L146.528 25.7712Z" fill="white"/>
<path d="M168.623 31.6979C168.06 31.6979 167.524 31.7239 167.013 31.776C166.502 31.8177 165.939 31.8386 165.324 31.8386H164.698C164.605 31.8386 164.537 31.7813 164.495 31.6666C164.453 31.5415 164.433 31.4477 164.433 31.3851C164.433 31.2809 164.443 31.1922 164.464 31.1193C164.495 31.0359 164.547 30.989 164.62 30.9785C164.735 30.9473 164.87 30.9212 165.027 30.9003C165.183 30.8795 165.345 30.8639 165.512 30.8534C165.678 30.8326 165.835 30.8222 165.981 30.8222C166.137 30.8117 166.273 30.8065 166.387 30.8065C166.637 30.8065 166.877 30.7492 167.107 30.6345C167.346 30.5198 167.539 30.3791 167.685 30.2123C167.789 30.0768 167.878 29.9465 167.951 29.8214C168.024 29.6858 168.086 29.5034 168.139 29.274C168.201 29.0447 168.248 28.7476 168.279 28.3827C168.321 28.0178 168.363 27.5383 168.404 26.944L169.139 13.5271C169.139 13.2039 169.103 12.8807 169.03 12.5575C168.957 12.2239 168.837 11.9164 168.67 11.6349C168.514 11.343 168.305 11.0928 168.045 10.8843C167.784 10.6758 167.466 10.5299 167.091 10.4465C167.06 10.436 166.976 10.4256 166.841 10.4152C166.705 10.3943 166.559 10.3735 166.403 10.3526C166.246 10.3318 166.101 10.3162 165.965 10.3057C165.829 10.2849 165.741 10.2745 165.699 10.2745C165.491 10.2328 165.324 10.1911 165.199 10.1494C165.084 10.1077 165.027 9.97734 165.027 9.75842C165.027 9.66459 165.032 9.57598 165.042 9.49258C165.053 9.39875 165.095 9.35184 165.167 9.35184H165.809C166.08 9.35184 166.33 9.36227 166.559 9.38312C166.799 9.40397 167.039 9.43003 167.279 9.4613C167.518 9.49258 167.769 9.51864 168.029 9.53949C168.3 9.56034 168.597 9.57077 168.92 9.57077H170.406C170.583 9.57077 170.745 9.56034 170.891 9.53949C171.047 9.50822 171.25 9.49258 171.501 9.49258C171.688 9.49258 171.886 9.51864 172.095 9.57077C172.303 9.61247 172.455 9.70629 172.548 9.85224C172.726 10.0607 172.877 10.2953 173.002 10.5559C173.127 10.8061 173.236 11.072 173.33 11.3534L178.584 25.177C178.626 25.2813 178.668 25.3699 178.71 25.4428C178.751 25.5054 178.798 25.5367 178.85 25.5367C178.923 25.5367 178.981 25.495 179.022 25.4116C179.064 25.3282 179.095 25.25 179.116 25.177L185.027 9.68023C185.09 9.56555 185.178 9.49258 185.293 9.4613C185.418 9.43003 185.554 9.41439 185.7 9.41439C186.221 9.41439 186.721 9.40397 187.201 9.38312C187.691 9.36227 188.175 9.3362 188.655 9.30493C189.145 9.27365 189.635 9.24759 190.125 9.22674C190.625 9.20589 191.152 9.19547 191.704 9.19547C191.736 9.19547 191.777 9.19547 191.829 9.19547C191.892 9.19547 191.949 9.20589 192.001 9.22674C192.064 9.23717 192.116 9.25802 192.158 9.28929C192.2 9.32057 192.22 9.36227 192.22 9.41439C192.22 9.56034 192.158 9.7115 192.033 9.86788C191.908 10.0138 191.751 10.0868 191.564 10.0868C191.042 10.0868 190.61 10.1494 190.266 10.2745C189.922 10.3996 189.572 10.655 189.218 11.0407C189.062 11.1971 188.937 11.3743 188.843 11.5724C188.749 11.7704 188.671 11.9842 188.608 12.2135C188.556 12.4324 188.52 12.6618 188.499 12.9016C188.488 13.1309 188.483 13.355 188.483 13.574L188.733 30.2748C188.806 30.4938 188.983 30.6449 189.265 30.7283C189.546 30.8117 189.859 30.8691 190.203 30.9003C190.547 30.9212 190.881 30.942 191.204 30.9629C191.538 30.9733 191.793 31.0202 191.97 31.1036C192.095 31.1558 192.168 31.2235 192.189 31.3069C192.21 31.3799 192.22 31.4477 192.22 31.5102C192.22 31.677 192.132 31.7813 191.955 31.823C191.788 31.8542 191.558 31.8699 191.266 31.8699C190.933 31.8699 190.62 31.8647 190.328 31.8542C190.036 31.8438 189.744 31.8386 189.453 31.8386C189.171 31.8282 188.874 31.8177 188.561 31.8073C188.248 31.7969 187.899 31.7917 187.513 31.7917H185.121C184.819 31.7917 184.527 31.7969 184.245 31.8073C183.964 31.8073 183.682 31.8177 183.401 31.8386C183.067 31.8699 182.734 31.8855 182.4 31.8855C182.317 31.8855 182.228 31.8803 182.134 31.8699C182.051 31.8699 181.967 31.8542 181.884 31.823C181.811 31.7917 181.748 31.7448 181.696 31.6822C181.655 31.6092 181.634 31.5154 181.634 31.4007C181.634 31.1922 181.764 31.0567 182.025 30.9942C182.285 30.9212 182.598 30.8847 182.963 30.8847H183.62C183.839 30.8847 184.042 30.8795 184.23 30.8691C184.428 30.8586 184.6 30.8274 184.746 30.7752C184.892 30.7231 185.006 30.6501 185.09 30.5563C185.184 30.4521 185.23 30.3113 185.23 30.1341L185.027 13.5271C185.027 13.4749 185.017 13.402 184.996 13.3081C184.975 13.2143 184.939 13.1674 184.886 13.1674C184.813 13.1674 184.756 13.183 184.714 13.2143C184.683 13.2352 184.657 13.256 184.636 13.2769L177.631 31.5102C177.589 31.677 177.526 31.7604 177.443 31.7604C177.36 31.7604 177.287 31.677 177.224 31.5102L170.25 13.1205C170.218 12.9954 170.156 12.9328 170.062 12.9328C170.02 12.9328 169.984 12.9433 169.953 12.9641C169.932 12.985 169.921 13.0371 169.921 13.1205L169.515 28.0543C169.515 28.1794 169.52 28.3462 169.53 28.5547C169.551 28.7528 169.577 28.9613 169.609 29.1802C169.65 29.3991 169.697 29.6129 169.749 29.8214C169.812 30.0299 169.89 30.2071 169.984 30.353C170.119 30.572 170.323 30.7335 170.594 30.8378C170.875 30.9316 171.172 30.9994 171.485 31.0411C171.808 31.0724 172.126 31.0932 172.439 31.1036C172.762 31.1141 173.033 31.1349 173.252 31.1662C173.377 31.1766 173.461 31.2235 173.502 31.3069C173.554 31.3903 173.58 31.4789 173.58 31.5728C173.58 31.6353 173.544 31.6874 173.471 31.7291C173.408 31.7708 173.325 31.8073 173.221 31.8386C173.127 31.8594 173.018 31.8699 172.892 31.8699C172.767 31.8803 172.653 31.8855 172.548 31.8855C172.163 31.8855 171.803 31.8751 171.469 31.8542C171.136 31.8334 170.813 31.8125 170.5 31.7917C170.187 31.7708 169.88 31.75 169.577 31.7291C169.275 31.7083 168.957 31.6979 168.623 31.6979Z" fill="white"/>
<path d="M199.335 17.7179V29.9777C199.335 30.0299 199.341 30.108 199.351 30.2123C199.362 30.3165 199.377 30.426 199.398 30.5407C199.429 30.6449 199.471 30.7388 199.523 30.8222C199.575 30.9056 199.648 30.9473 199.742 30.9473H201.462C201.577 30.9473 201.671 30.9942 201.744 31.088C201.827 31.1818 201.869 31.2861 201.869 31.4007C201.869 31.4946 201.822 31.5936 201.728 31.6979C201.634 31.7917 201.54 31.8386 201.447 31.8386H196.536C196.328 31.8386 196.119 31.8438 195.911 31.8542C195.702 31.8751 195.473 31.8855 195.223 31.8855C195.077 31.8855 194.936 31.8803 194.801 31.8699C194.665 31.8594 194.54 31.8386 194.425 31.8073C194.363 31.7656 194.331 31.6666 194.331 31.5102C194.331 31.2913 194.384 31.1662 194.488 31.1349C194.748 31.0932 194.973 31.0619 195.16 31.0411C195.348 31.0098 195.546 30.9942 195.754 30.9942C195.921 30.9942 196.036 30.9942 196.098 30.9942C196.171 30.9837 196.255 30.9681 196.349 30.9473C196.495 30.8847 196.568 30.6658 196.568 30.2905V17.8274C196.568 17.7023 196.505 17.5928 196.38 17.499C196.265 17.3947 196.151 17.3426 196.036 17.3426C195.796 17.3426 195.609 17.3635 195.473 17.4052C195.348 17.4364 195.181 17.4521 194.973 17.4521C194.837 17.4521 194.702 17.4417 194.566 17.4208C194.43 17.3895 194.295 17.353 194.159 17.3113C194.086 17.2801 194.05 17.2175 194.05 17.1237C194.019 16.9882 194.029 16.8787 194.081 16.7953C194.144 16.7119 194.227 16.6493 194.331 16.6076C194.436 16.5555 194.55 16.5242 194.675 16.5138C194.811 16.5034 194.936 16.4982 195.051 16.4982H200.68C200.951 16.4982 201.123 16.4982 201.196 16.4982C201.269 16.4982 201.316 16.5086 201.337 16.5295C201.535 16.5607 201.634 16.6754 201.634 16.8735C201.634 17.0924 201.514 17.2331 201.275 17.2957C201.035 17.3582 200.769 17.3947 200.477 17.4052C200.196 17.4156 199.935 17.4364 199.695 17.4677C199.455 17.4886 199.335 17.572 199.335 17.7179Z" fill="white"/>
<path d="M203.995 31.5415C203.995 31.3017 204.1 31.1662 204.308 31.1349H204.902C205.09 31.1349 205.262 31.1349 205.418 31.1349C205.575 31.1245 205.71 31.1036 205.825 31.0724C205.94 31.0411 206.028 30.989 206.091 30.916C206.164 30.843 206.2 30.744 206.2 30.6189V18.015C206.2 17.9004 206.153 17.8065 206.06 17.7336C205.966 17.6502 205.862 17.6084 205.747 17.6084H204.339C204.287 17.6084 204.225 17.6032 204.152 17.5928C204.079 17.5824 203.995 17.572 203.902 17.5615C203.849 17.5407 203.803 17.499 203.761 17.4364C203.73 17.3739 203.714 17.3166 203.714 17.2644C203.714 17.0663 203.839 16.9673 204.089 16.9673H207.936C207.967 16.9673 208.046 16.9621 208.171 16.9517C208.306 16.9412 208.447 16.9308 208.593 16.9204C208.739 16.91 208.869 16.8995 208.984 16.8891C209.098 16.8787 209.166 16.8735 209.187 16.8735C209.333 16.8631 209.495 16.8526 209.672 16.8422C209.86 16.8318 210.011 16.8266 210.125 16.8266C210.157 16.8266 210.214 16.8318 210.297 16.8422C210.381 16.8422 210.469 16.8474 210.563 16.8578C210.657 16.8578 210.746 16.8631 210.829 16.8735C210.923 16.8735 210.985 16.8735 211.017 16.8735C211.163 16.9048 211.236 16.9882 211.236 17.1237C211.236 17.2384 211.199 17.353 211.126 17.4677C211.064 17.5407 210.965 17.5772 210.829 17.5772H209.109C209.036 17.5772 208.979 17.6189 208.937 17.7023C208.895 17.7753 208.859 17.8691 208.827 17.9838C208.807 18.088 208.791 18.1975 208.781 18.3121C208.781 18.4268 208.781 18.5259 208.781 18.6093C208.781 19.1514 208.807 19.6935 208.859 20.2356C208.911 20.7672 208.937 21.3771 208.937 22.0651V30.6971C208.937 30.77 208.953 30.8586 208.984 30.9629C209.026 31.0567 209.093 31.1036 209.187 31.1036H214.191C214.473 31.1036 214.738 30.9785 214.989 30.7283C215.239 30.4781 215.468 30.1862 215.677 29.8526C215.896 29.519 216.083 29.1906 216.24 28.8675C216.406 28.5339 216.542 28.2889 216.646 28.1325C216.709 28.0595 216.771 28.023 216.834 28.023C216.886 28.023 216.933 28.07 216.975 28.1638C217.016 28.3097 217.037 28.44 217.037 28.5547C217.048 28.659 217.053 28.8153 217.053 29.0238C217.053 29.1072 217.037 29.2323 217.006 29.3991C216.985 29.5555 216.954 29.7223 216.912 29.8995C216.881 30.0768 216.849 30.2488 216.818 30.4156C216.797 30.572 216.787 30.6971 216.787 30.7909C216.787 30.843 216.787 30.916 216.787 31.0098C216.787 31.0932 216.782 31.1818 216.771 31.2756C216.771 31.3695 216.766 31.4581 216.756 31.5415C216.745 31.6145 216.73 31.6666 216.709 31.6979C216.563 31.7917 216.432 31.8386 216.318 31.8386C215.015 31.8386 213.623 31.8282 212.143 31.8073C210.662 31.776 209.187 31.7604 207.717 31.7604C207.457 31.7604 207.186 31.7656 206.904 31.776C206.623 31.7865 206.352 31.8021 206.091 31.823C205.83 31.8334 205.58 31.8438 205.34 31.8542C205.111 31.8647 204.913 31.8699 204.746 31.8699C204.527 31.8699 204.345 31.8594 204.199 31.8386C204.063 31.8073 203.995 31.7083 203.995 31.5415Z" fill="white"/>
<path d="M218.663 31.5415C218.663 31.3017 218.768 31.1662 218.976 31.1349H219.57C219.758 31.1349 219.93 31.1349 220.086 31.1349C220.243 31.1245 220.378 31.1036 220.493 31.0724C220.608 31.0411 220.696 30.989 220.759 30.916C220.832 30.843 220.868 30.744 220.868 30.6189V18.015C220.868 17.9004 220.821 17.8065 220.728 17.7336C220.634 17.6502 220.53 17.6084 220.415 17.6084H219.007C218.955 17.6084 218.893 17.6032 218.82 17.5928C218.747 17.5824 218.663 17.572 218.57 17.5615C218.517 17.5407 218.471 17.499 218.429 17.4364C218.398 17.3739 218.382 17.3166 218.382 17.2644C218.382 17.0663 218.507 16.9673 218.757 16.9673H222.604C222.635 16.9673 222.714 16.9621 222.839 16.9517C222.974 16.9412 223.115 16.9308 223.261 16.9204C223.407 16.91 223.537 16.8995 223.652 16.8891C223.766 16.8787 223.834 16.8735 223.855 16.8735C224.001 16.8631 224.163 16.8526 224.34 16.8422C224.528 16.8318 224.679 16.8266 224.793 16.8266C224.825 16.8266 224.882 16.8318 224.965 16.8422C225.049 16.8422 225.137 16.8474 225.231 16.8578C225.325 16.8578 225.414 16.8631 225.497 16.8735C225.591 16.8735 225.653 16.8735 225.685 16.8735C225.831 16.9048 225.904 16.9882 225.904 17.1237C225.904 17.2384 225.867 17.353 225.794 17.4677C225.732 17.5407 225.633 17.5772 225.497 17.5772H223.777C223.704 17.5772 223.647 17.6189 223.605 17.7023C223.563 17.7753 223.527 17.8691 223.495 17.9838C223.475 18.088 223.459 18.1975 223.449 18.3121C223.449 18.4268 223.449 18.5259 223.449 18.6093C223.449 19.1514 223.475 19.6935 223.527 20.2356C223.579 20.7672 223.605 21.3771 223.605 22.0651V30.6971C223.605 30.77 223.621 30.8586 223.652 30.9629C223.694 31.0567 223.761 31.1036 223.855 31.1036H228.859C229.141 31.1036 229.406 30.9785 229.657 30.7283C229.907 30.4781 230.136 30.1862 230.345 29.8526C230.564 29.519 230.751 29.1906 230.908 28.8675C231.074 28.5339 231.21 28.2889 231.314 28.1325C231.377 28.0595 231.439 28.023 231.502 28.023C231.554 28.023 231.601 28.07 231.643 28.1638C231.684 28.3097 231.705 28.44 231.705 28.5547C231.716 28.659 231.721 28.8153 231.721 29.0238C231.721 29.1072 231.705 29.2323 231.674 29.3991C231.653 29.5555 231.622 29.7223 231.58 29.8995C231.549 30.0768 231.517 30.2488 231.486 30.4156C231.465 30.572 231.455 30.6971 231.455 30.7909C231.455 30.843 231.455 30.916 231.455 31.0098C231.455 31.0932 231.45 31.1818 231.439 31.2756C231.439 31.3695 231.434 31.4581 231.424 31.5415C231.413 31.6145 231.398 31.6666 231.377 31.6979C231.231 31.7917 231.1 31.8386 230.986 31.8386C229.683 31.8386 228.291 31.8282 226.811 31.8073C225.33 31.776 223.855 31.7604 222.385 31.7604C222.125 31.7604 221.854 31.7656 221.572 31.776C221.291 31.7865 221.019 31.8021 220.759 31.823C220.498 31.8334 220.248 31.8438 220.008 31.8542C219.779 31.8647 219.581 31.8699 219.414 31.8699C219.195 31.8699 219.013 31.8594 218.867 31.8386C218.731 31.8073 218.663 31.7083 218.663 31.5415Z" fill="white"/>
<path d="M238.367 17.7179V29.9777C238.367 30.0299 238.372 30.108 238.382 30.2123C238.393 30.3165 238.408 30.426 238.429 30.5407C238.461 30.6449 238.502 30.7388 238.554 30.8222C238.606 30.9056 238.679 30.9473 238.773 30.9473H240.493C240.608 30.9473 240.702 30.9942 240.775 31.088C240.858 31.1818 240.9 31.2861 240.9 31.4007C240.9 31.4946 240.853 31.5936 240.759 31.6979C240.665 31.7917 240.572 31.8386 240.478 31.8386H235.568C235.359 31.8386 235.151 31.8438 234.942 31.8542C234.734 31.8751 234.504 31.8855 234.254 31.8855C234.108 31.8855 233.967 31.8803 233.832 31.8699C233.696 31.8594 233.571 31.8386 233.457 31.8073C233.394 31.7656 233.363 31.6666 233.363 31.5102C233.363 31.2913 233.415 31.1662 233.519 31.1349C233.78 31.0932 234.004 31.0619 234.191 31.0411C234.379 31.0098 234.577 30.9942 234.786 30.9942C234.953 30.9942 235.067 30.9942 235.13 30.9942C235.203 30.9837 235.286 30.9681 235.38 30.9473C235.526 30.8847 235.599 30.6658 235.599 30.2905V17.8274C235.599 17.7023 235.536 17.5928 235.411 17.499C235.297 17.3947 235.182 17.3426 235.067 17.3426C234.827 17.3426 234.64 17.3635 234.504 17.4052C234.379 17.4364 234.212 17.4521 234.004 17.4521C233.868 17.4521 233.733 17.4417 233.597 17.4208C233.462 17.3895 233.326 17.353 233.191 17.3113C233.118 17.2801 233.081 17.2175 233.081 17.1237C233.05 16.9882 233.06 16.8787 233.113 16.7953C233.175 16.7119 233.258 16.6493 233.363 16.6076C233.467 16.5555 233.582 16.5242 233.707 16.5138C233.842 16.5034 233.967 16.4982 234.082 16.4982H239.712C239.983 16.4982 240.155 16.4982 240.228 16.4982C240.301 16.4982 240.347 16.5086 240.368 16.5295C240.566 16.5607 240.665 16.6754 240.665 16.8735C240.665 17.0924 240.546 17.2331 240.306 17.2957C240.066 17.3582 239.8 17.3947 239.508 17.4052C239.227 17.4156 238.966 17.4364 238.726 17.4677C238.487 17.4886 238.367 17.572 238.367 17.7179Z" fill="white"/>
<path d="M242.839 24.4733C242.839 23.8582 242.896 23.3005 243.011 22.8001C243.126 22.2893 243.298 21.8149 243.527 21.3771C243.756 20.9392 244.038 20.5275 244.372 20.1417C244.716 19.7456 245.106 19.3599 245.544 18.9846C245.888 18.6927 246.258 18.4529 246.655 18.2652C247.051 18.0776 247.457 17.9316 247.874 17.8274C248.302 17.7127 248.74 17.6345 249.188 17.5928C249.636 17.5511 250.079 17.5303 250.517 17.5303C250.892 17.5303 251.289 17.5876 251.706 17.7023C252.133 17.817 252.545 17.9681 252.941 18.1558C253.337 18.333 253.702 18.5311 254.036 18.75C254.369 18.9585 254.645 19.1618 254.864 19.3599C255.625 20.0792 256.214 20.8611 256.631 21.7055C257.048 22.5395 257.257 23.4569 257.257 24.4577C257.257 24.9998 257.215 25.5002 257.132 25.9589C257.059 26.4072 256.944 26.8294 256.788 27.2255C256.642 27.6217 256.454 27.997 256.225 28.3514C256.006 28.7059 255.75 29.0551 255.459 29.3991C255.187 29.7015 254.864 29.9986 254.489 30.2905C254.124 30.5824 253.718 30.843 253.269 31.0724C252.821 31.3017 252.336 31.4894 251.815 31.6353C251.304 31.7708 250.772 31.8386 250.22 31.8386C249.271 31.8386 248.396 31.7135 247.593 31.4633C246.801 31.2027 246.06 30.7492 245.372 30.1028C243.683 28.6329 242.839 26.7564 242.839 24.4733ZM250.079 18.2027C249.61 18.2027 249.209 18.2548 248.875 18.3591C248.552 18.4529 248.26 18.5936 247.999 18.7813C247.749 18.9585 247.52 19.1774 247.311 19.438C247.103 19.6987 246.889 19.9906 246.67 20.3137C246.274 20.9288 246.013 21.5856 245.888 22.2841C245.763 22.9721 245.701 23.6706 245.701 24.3795C245.701 25.1926 245.779 26.0058 245.935 26.8189C246.102 27.6217 246.42 28.4036 246.889 29.1646C247.014 29.3835 247.191 29.6129 247.421 29.8526C247.65 30.082 247.9 30.2957 248.171 30.4938C248.442 30.6814 248.719 30.843 249 30.9785C249.292 31.1036 249.563 31.1662 249.813 31.1662C250.303 31.1662 250.731 31.0828 251.096 30.916C251.471 30.7492 251.805 30.5303 252.096 30.2592C252.388 29.9777 252.644 29.6598 252.863 29.3053C253.092 28.9404 253.311 28.5651 253.519 28.1794C253.78 27.6686 253.968 27.1213 254.082 26.5375C254.208 25.9432 254.27 25.3021 254.27 24.6141C254.27 24.1241 254.234 23.6654 254.161 23.238C254.098 22.8105 253.994 22.3987 253.848 22.0026C253.712 21.6064 253.54 21.2207 253.332 20.8454C253.123 20.4597 252.878 20.0688 252.597 19.6726C252.315 19.2452 251.956 18.8959 251.518 18.6249C251.09 18.3434 250.611 18.2027 250.079 18.2027Z" fill="white"/>
<path d="M260.525 31.8386C260.421 31.8386 260.306 31.8334 260.181 31.823C260.056 31.8125 259.936 31.7917 259.821 31.7604C259.717 31.7187 259.629 31.6614 259.556 31.5884C259.483 31.5154 259.446 31.4164 259.446 31.2913C259.446 31.1975 259.451 31.1141 259.462 31.0411C259.483 30.9681 259.54 30.9108 259.634 30.8691C259.967 30.8169 260.244 30.7805 260.463 30.7596C260.692 30.7388 260.885 30.6918 261.041 30.6189C261.197 30.5459 261.323 30.4208 261.416 30.2436C261.521 30.0559 261.609 29.7744 261.682 29.3991C261.682 28.513 261.687 27.6008 261.698 26.6626C261.719 25.7243 261.75 24.8173 261.792 23.9416C261.813 23.3057 261.865 22.6906 261.948 22.0964C262.042 21.4918 262.089 20.8715 262.089 20.2356C262.089 20.1209 262.084 20.0375 262.073 19.9854C262.063 19.9332 262.031 19.8342 261.979 19.6882C261.948 19.6361 261.886 19.5423 261.792 19.4068C261.698 19.2608 261.594 19.1149 261.479 18.9689C261.364 18.8125 261.25 18.6666 261.135 18.5311C261.031 18.3851 260.953 18.2861 260.9 18.234C260.796 18.1089 260.645 18.0098 260.447 17.9368C260.249 17.8534 260.051 17.7753 259.853 17.7023C259.665 17.6189 259.498 17.5303 259.352 17.4364C259.217 17.3322 259.149 17.1914 259.149 17.0142C259.149 16.9204 259.18 16.8474 259.243 16.7953C259.316 16.7327 259.399 16.6858 259.493 16.6546C259.597 16.6233 259.696 16.6024 259.79 16.592C259.894 16.5816 259.978 16.5764 260.04 16.5764C260.061 16.5764 260.103 16.5816 260.165 16.592C260.228 16.6024 260.296 16.6181 260.369 16.6389C260.442 16.6493 260.509 16.6598 260.572 16.6702C260.635 16.6806 260.681 16.6858 260.713 16.6858H262.37C262.422 16.7067 262.506 16.7536 262.621 16.8266C262.735 16.8891 262.813 16.9412 262.855 16.9829C263.647 17.8482 264.424 18.6979 265.185 19.5319C265.946 20.3659 266.697 21.1894 267.437 22.0026C268.187 22.8157 268.933 23.6237 269.673 24.4264C270.424 25.2291 271.179 26.0423 271.94 26.8659C271.993 26.918 272.04 26.9649 272.081 27.0066C272.123 27.0379 272.165 27.0691 272.206 27.1004C272.248 27.1213 272.285 27.1317 272.316 27.1317C272.41 27.1317 272.483 27.09 272.535 27.0066C272.587 26.9128 272.613 26.8554 272.613 26.8346V21.7211C272.613 21.3562 272.602 20.9862 272.582 20.6109C272.571 20.2356 272.55 19.8863 272.519 19.5631C272.488 19.2295 272.446 18.9324 272.394 18.6718C272.342 18.4112 272.279 18.2183 272.206 18.0932C272.06 17.8534 271.836 17.6866 271.534 17.5928C271.232 17.499 270.929 17.4312 270.627 17.3895C270.325 17.3374 270.059 17.2853 269.829 17.2331C269.61 17.181 269.501 17.082 269.501 16.936C269.501 16.6441 269.673 16.4982 270.017 16.4982H275.944C276.142 16.4982 276.241 16.6181 276.241 16.8578C276.241 16.9621 276.126 17.0507 275.897 17.1237C275.667 17.1862 275.407 17.2696 275.115 17.3739C274.823 17.4781 274.536 17.6137 274.255 17.7805C273.984 17.9473 273.801 18.1766 273.708 18.4685C273.593 18.7291 273.515 19.0106 273.473 19.3129C273.431 19.6153 273.41 20.0323 273.41 20.5639V31.5102C273.41 31.604 273.374 31.6822 273.301 31.7448C273.228 31.8073 273.171 31.8386 273.129 31.8386C272.993 31.8386 272.842 31.7396 272.675 31.5415C272.634 31.4894 272.498 31.3382 272.269 31.088C272.05 30.8378 271.763 30.5198 271.409 30.1341C271.054 29.7484 270.648 29.3105 270.189 28.8206C269.73 28.3306 269.251 27.8145 268.75 27.2724C268.25 26.7303 267.739 26.1778 267.218 25.6149C266.697 25.0519 266.196 24.5098 265.717 23.9886C265.237 23.4673 264.784 22.9825 264.356 22.5343C263.939 22.0756 263.585 21.6846 263.293 21.3615C263.189 21.2781 263.095 21.2364 263.011 21.2364C262.845 21.2364 262.74 21.3406 262.699 21.5491C262.657 21.7576 262.636 21.9765 262.636 22.2059C262.636 22.3101 262.636 22.4665 262.636 22.675C262.647 22.8731 262.657 23.1076 262.667 23.3787C262.678 23.6393 262.688 23.9208 262.699 24.2231C262.72 24.515 262.735 24.8017 262.746 25.0832C262.756 25.3542 262.761 25.6044 262.761 25.8338C262.772 26.0631 262.777 26.2456 262.777 26.3811V27.1317C262.777 27.3715 262.777 27.6425 262.777 27.9449C262.787 28.2472 262.803 28.5443 262.824 28.8362C262.855 29.1281 262.892 29.3939 262.933 29.6337C262.985 29.8735 263.058 30.0559 263.152 30.181C263.256 30.3478 263.392 30.4677 263.559 30.5407C263.726 30.6137 263.903 30.6658 264.09 30.6971C264.278 30.7179 264.466 30.7335 264.653 30.744C264.851 30.744 265.023 30.7596 265.169 30.7909C265.326 30.8222 265.451 30.8847 265.545 30.9785C265.639 31.0619 265.685 31.1975 265.685 31.3851C265.685 31.4789 265.675 31.5571 265.654 31.6197C265.644 31.6718 265.586 31.7448 265.482 31.8386H260.525Z" fill="white"/>
<path d="M34.3945 30.4444L48.9807 27.203V33.6858H32.7738V28.2613C36.0946 26.8303 38.4462 23.268 38.4462 19.0996C38.4462 13.6703 34.4561 9.41929 29.5325 9.41929C24.6088 9.41929 20.6187 13.6687 20.6187 19.0996C20.6187 23.268 22.9703 26.8303 26.2911 28.2613V33.6858H10.0843V27.203L24.6704 30.4444V29.6195C19.9186 27.9372 16.567 23.8612 16.567 19.0996C16.567 12.8341 22.3723 7.75485 29.5325 7.75485C36.6927 7.75485 42.4979 12.8341 42.4979 19.0996C42.4979 23.8612 39.1464 27.9356 34.3945 29.6195V30.4444Z" fill="white"/>
</svg>
