<svg width="223" height="57" viewBox="0 0 223 57" fill="none" xmlns="http://www.w3.org/2000/svg">
<g id="Pastel&#38;Co.">
<g id="Logo">
<g id="Logotype">
<path d="M62.7446 36.6437H59.8058V20.4225H66.3173C68.1229 20.4225 69.5251 20.8738 70.5239 21.7766C71.5227 22.6794 72.0221 24.0432 72.0221 25.868C72.0221 27.4622 71.5035 28.7108 70.4663 29.6135C69.4482 30.5163 68.0653 30.9677 66.3173 30.9677H62.7446V36.6437ZM65.914 22.8139H62.7446V28.8068H65.914C66.9512 28.8068 67.7867 28.5571 68.4206 28.0577C69.0545 27.5583 69.3714 26.8091 69.3714 25.8103C69.3714 24.7923 69.0545 24.0432 68.4206 23.563C67.806 23.0636 66.9704 22.8139 65.914 22.8139Z" fill="white"/>
<path d="M78.2181 36.9318C76.5854 36.9318 75.4233 36.3748 74.7318 35.2607C74.0403 34.1466 73.6946 32.6868 73.6946 30.8813C73.6946 29.0565 74.0403 27.5871 74.7318 26.473C75.4425 25.3397 76.6046 24.7731 78.2181 24.7731C79.1401 24.7731 79.87 24.9364 80.4078 25.2629C80.9456 25.5702 81.349 25.916 81.6179 26.3001C81.8868 26.6843 82.0501 26.9724 82.1077 27.1645H82.1654V24.8019H85.1906V36.6437H82.6552L82.1654 34.7133H82.1077C82.0501 34.8862 81.8772 35.1551 81.5891 35.52C81.3202 35.8658 80.9072 36.1923 80.3502 36.4996C79.8124 36.7878 79.1017 36.9318 78.2181 36.9318ZM79.4282 34.454C80.5039 34.454 81.2242 34.1178 81.5891 33.4455C81.9733 32.7541 82.1654 31.9089 82.1654 30.9101C82.1654 29.8536 81.9733 28.9989 81.5891 28.3458C81.2049 27.6927 80.4846 27.3662 79.4282 27.3662C78.6791 27.3662 78.0932 27.5295 77.6707 27.856C77.2673 28.1825 76.9792 28.6147 76.8063 29.1525C76.6526 29.6712 76.5758 30.257 76.5758 30.9101C76.5758 31.5632 76.6526 32.1586 76.8063 32.6964C76.9792 33.2343 77.2673 33.6664 77.6707 33.993C78.0932 34.3003 78.6791 34.454 79.4282 34.454Z" fill="white"/>
<path d="M92.7718 36.9318C92.2724 36.9318 91.7154 36.8454 91.1007 36.6725C90.5053 36.4996 89.929 36.2403 89.372 35.8946C88.8342 35.5488 88.3828 35.107 88.0178 34.5692C87.6721 34.0122 87.4992 33.3591 87.4992 32.61H90.2075C90.2075 32.6484 90.2171 32.7829 90.2363 33.0134C90.2556 33.2247 90.3324 33.4744 90.4668 33.7625C90.6205 34.0314 90.8702 34.2715 91.216 34.4828C91.5617 34.6941 92.0611 34.7997 92.7142 34.7997C93.4825 34.7997 94.0588 34.6653 94.4429 34.3963C94.8271 34.1082 95.0192 33.7817 95.0192 33.4167C95.0192 32.9942 94.8367 32.6676 94.4717 32.4371C94.126 32.1874 93.6746 31.9857 93.1176 31.8321C92.5605 31.6784 91.9651 31.5247 91.3312 31.3711C90.7165 31.1982 90.1307 30.9773 89.5737 30.7084C89.0358 30.4395 88.5941 30.0745 88.2483 29.6135C87.9026 29.1333 87.7297 28.5187 87.7297 27.7696C87.7297 26.6747 88.1715 25.8487 89.055 25.2917C89.9386 24.7155 91.0623 24.4273 92.4261 24.4273C93.3865 24.4273 94.2797 24.581 95.1056 24.8883C95.9315 25.1765 96.5942 25.6471 97.0936 26.3001C97.593 26.934 97.8428 27.7696 97.8428 28.8068H95.1344C95.1536 28.2113 95.0192 27.7696 94.731 27.4814C94.4621 27.1741 94.1164 26.9628 93.6938 26.8476C93.2904 26.7323 92.8967 26.6747 92.5125 26.6747C91.821 26.6747 91.2928 26.7995 90.9278 27.0493C90.5821 27.2797 90.4092 27.5871 90.4092 27.9712C90.4092 28.413 90.5821 28.7588 90.9278 29.0085C91.2928 29.239 91.7538 29.4311 92.3108 29.5847C92.8871 29.7384 93.4825 29.9017 94.0972 30.0745C94.731 30.2282 95.3265 30.4395 95.8835 30.7084C96.4598 30.9773 96.9208 31.3423 97.2665 31.8033C97.6315 32.245 97.8139 32.8405 97.8139 33.5896C97.8139 34.7229 97.3433 35.568 96.4021 36.1251C95.4802 36.6629 94.27 36.9318 92.7718 36.9318Z" fill="white"/>
<path d="M104.211 36.6437C103.27 36.6437 102.559 36.4132 102.079 35.9522C101.618 35.4912 101.388 34.7421 101.388 33.7049V26.8764H99.6014V24.8019C100.158 24.8019 100.591 24.7443 100.898 24.629C101.205 24.5138 101.426 24.2449 101.561 23.8223C101.695 23.3997 101.762 22.7178 101.762 21.7766H104.125V24.8019H106.833V26.8764H104.125V34.3387H106.891V36.6437H104.211Z" fill="white"/>
<path d="M115.012 36.9318C113.648 36.9318 112.534 36.6437 111.669 36.0674C110.824 35.472 110.19 34.7229 109.768 33.8201C109.364 32.8981 109.153 31.9281 109.134 30.9101C109.115 29.7192 109.336 28.6627 109.797 27.7407C110.277 26.7995 110.949 26.0696 111.813 25.551C112.697 25.0132 113.734 24.7443 114.925 24.7443C115.982 24.7443 116.923 24.9748 117.749 25.4358C118.594 25.8968 119.266 26.5498 119.766 27.395C120.265 28.2209 120.524 29.2006 120.544 30.3338C120.544 30.3722 120.544 30.4779 120.544 30.6508C120.544 30.8236 120.544 30.9677 120.544 31.0829H111.929C111.929 32.1778 112.198 33.023 112.735 33.6184C113.273 34.1947 114.013 34.4828 114.954 34.4828C115.684 34.4828 116.289 34.3003 116.769 33.9354C117.269 33.5704 117.566 33.0902 117.662 32.4947H120.515C120.38 33.7433 119.842 34.7997 118.901 35.6641C117.96 36.5092 116.664 36.9318 115.012 36.9318ZM112.015 29.7576H117.605C117.586 29.6231 117.537 29.4118 117.461 29.1237C117.403 28.8356 117.278 28.5379 117.086 28.2305C116.913 27.9232 116.644 27.6639 116.279 27.4526C115.914 27.2413 115.444 27.1357 114.868 27.1357C114.099 27.1357 113.513 27.299 113.11 27.6255C112.726 27.9328 112.447 28.2978 112.274 28.7204C112.121 29.1237 112.034 29.4695 112.015 29.7576Z" fill="white"/>
<path d="M123.682 36.6437V20.4225H126.563V36.6437H123.682Z" fill="white"/>
<path d="M152.467 36.7013C151.122 36.1443 149.816 35.4624 148.548 34.6557C147.722 35.4048 146.791 35.9714 145.754 36.3556C144.735 36.7205 143.698 36.903 142.642 36.903C141.585 36.903 140.615 36.7205 139.732 36.3556C138.848 35.9906 138.128 35.4528 137.571 34.7421C137.033 34.0314 136.764 33.1382 136.764 32.0626C136.764 31.275 136.918 30.622 137.225 30.1033C137.552 29.5655 137.926 29.1333 138.349 28.8068C138.791 28.461 139.204 28.2017 139.588 28.0289C139.991 27.8368 140.279 27.7023 140.452 27.6255C140.356 27.4718 140.164 27.2317 139.876 26.9052C139.588 26.5594 139.319 26.1273 139.069 25.6086C138.819 25.09 138.695 24.5042 138.695 23.8511C138.695 23.0444 138.906 22.3721 139.328 21.8343C139.77 21.2964 140.327 20.8931 140.999 20.6241C141.691 20.336 142.411 20.192 143.16 20.192C143.929 20.1728 144.649 20.288 145.321 20.5377C146.013 20.7874 146.57 21.1812 146.992 21.719C147.434 22.2568 147.655 22.9291 147.655 23.7359C147.655 24.4081 147.492 25.0036 147.165 25.5222C146.839 26.0408 146.455 26.4826 146.013 26.8476C145.571 27.1933 145.168 27.4622 144.803 27.6543C144.438 27.8464 144.217 27.9616 144.14 28.0001C144.351 28.269 144.764 28.7011 145.379 29.2966C146.013 29.892 146.733 30.5163 147.54 31.1694C147.694 30.9581 147.857 30.6412 148.03 30.2186C148.222 29.7768 148.318 29.3158 148.318 28.8356C148.318 28.3554 148.126 27.9328 147.742 27.5679L150.191 25.9544C150.306 26.0888 150.459 26.3866 150.652 26.8476C150.863 27.2894 151.026 27.8368 151.141 28.4899C151.257 29.1237 151.247 29.8152 151.113 30.5643C150.997 31.3134 150.68 32.053 150.162 32.7829C150.642 33.0902 151.132 33.3879 151.631 33.676C152.15 33.945 152.784 34.2331 153.533 34.5404L152.467 36.7013ZM142.527 26.6459C142.776 26.5114 143.103 26.3289 143.506 26.0985C143.91 25.8487 144.274 25.5606 144.601 25.2341C144.928 24.9075 145.11 24.5522 145.148 24.168C145.187 23.7263 145.081 23.3709 144.832 23.102C144.582 22.8139 144.265 22.6218 143.881 22.5257C143.497 22.4105 143.103 22.4009 142.699 22.4969C142.315 22.5738 141.989 22.7466 141.72 23.0156C141.451 23.2845 141.326 23.659 141.345 24.1392C141.364 24.8883 141.758 25.7239 142.527 26.6459ZM146.272 33.0134C145.465 32.3987 144.707 31.7552 143.996 31.0829C143.285 30.3915 142.632 29.6904 142.037 28.9797C141.441 29.287 140.894 29.6423 140.394 30.0457C139.914 30.4299 139.674 30.9869 139.674 31.7168C139.674 32.4275 139.905 33.0038 140.366 33.4455C140.846 33.8873 141.441 34.1755 142.152 34.3099C142.863 34.4252 143.593 34.3771 144.342 34.1658C145.091 33.9546 145.734 33.5704 146.272 33.0134Z" fill="white"/>
<path d="M170.135 36.9318C168.618 36.9318 167.244 36.6245 166.015 36.0098C164.786 35.376 163.806 34.4444 163.076 33.215C162.366 31.9857 162.01 30.4491 162.01 28.6051C162.029 26.7995 162.394 25.2629 163.105 23.9952C163.816 22.7274 164.786 21.767 166.015 21.114C167.244 20.4609 168.647 20.1343 170.222 20.1343C171.72 20.1343 172.997 20.4033 174.054 20.9411C175.11 21.4789 175.955 22.2088 176.589 23.1308C177.242 24.0528 177.665 25.09 177.857 26.2425H174.832C174.697 25.3974 174.38 24.7347 173.881 24.2545C173.401 23.7551 172.834 23.4093 172.181 23.2172C171.528 23.0059 170.875 22.9003 170.222 22.9003C168.512 22.9003 167.196 23.3805 166.274 24.3409C165.372 25.3013 164.92 26.6555 164.92 28.4034C164.92 30.2666 165.362 31.6976 166.246 32.6964C167.148 33.6953 168.455 34.1947 170.164 34.1947C170.875 34.1947 171.566 34.089 172.239 33.8777C172.911 33.6472 173.487 33.2823 173.967 32.7829C174.448 32.2642 174.755 31.5728 174.889 30.7084H177.943C177.732 31.8993 177.3 32.9653 176.647 33.9065C176.013 34.8285 175.149 35.568 174.054 36.1251C172.978 36.6629 171.672 36.9318 170.135 36.9318Z" fill="white"/>
<path d="M186.027 36.9318C184.682 36.9318 183.568 36.6725 182.685 36.1539C181.801 35.6353 181.139 34.9246 180.697 34.0218C180.255 33.0998 180.034 32.053 180.034 30.8813C180.015 29.1141 180.505 27.6639 181.504 26.5306C182.522 25.3781 184.029 24.8019 186.027 24.8019C187.967 24.8019 189.436 25.3589 190.435 26.473C191.453 27.5871 191.962 29.0565 191.962 30.8813C191.962 32.0145 191.751 33.0422 191.328 33.9642C190.906 34.8862 190.253 35.6161 189.369 36.1539C188.486 36.6725 187.372 36.9318 186.027 36.9318ZM186.027 34.454C186.872 34.454 187.516 34.2715 187.957 33.9065C188.418 33.5416 188.726 33.0806 188.879 32.5236C189.033 31.9473 189.11 31.3711 189.11 30.7948C189.11 30.1994 189.033 29.6135 188.879 29.0373C188.726 28.461 188.418 27.9904 187.957 27.6255C187.516 27.2605 186.872 27.0781 186.027 27.0781C185.163 27.0781 184.5 27.2701 184.039 27.6543C183.597 28.0193 183.29 28.4899 183.117 29.0661C182.963 29.6231 182.886 30.1994 182.886 30.7948C182.886 31.3711 182.963 31.9473 183.117 32.5236C183.29 33.0806 183.597 33.5416 184.039 33.9065C184.5 34.2715 185.163 34.454 186.027 34.454Z" fill="white"/>
<path d="M196.304 36.6437C195.593 36.6437 195.122 36.4708 194.892 36.1251C194.661 35.7793 194.546 35.3567 194.546 34.8573C194.546 34.3963 194.661 33.993 194.892 33.6472C195.142 33.3015 195.612 33.1286 196.304 33.1286C196.957 33.1286 197.399 33.3015 197.629 33.6472C197.879 33.993 198.004 34.3963 198.004 34.8573C198.004 35.3567 197.879 35.7793 197.629 36.1251C197.399 36.4708 196.957 36.6437 196.304 36.6437Z" fill="white"/>
</g>
<g id="Logomark">
<rect id="Rectangle 3" x="24.1759" y="12.7403" width="17.6074" height="30.5195" fill="white" stroke="white" stroke-width="1.17383"/>
<rect id="Rectangle 4" x="30.045" y="12.7403" width="17.6074" height="23.4766" fill="white" stroke="white" stroke-width="1.17383"/>
<rect id="Rectangle 5" x="30.045" y="24.4785" width="11.7383" height="11.7383" fill="#FF7FFF" stroke="white" stroke-width="1.17383"/>
</g>
</g>
</g>
</svg>
